<?xml version="1.0" encoding="utf-8" standalone="no"?>
<!DOCTYPE svg PUBLIC "-//W3C//DTD SVG 1.1//EN"
  "http://www.w3.org/Graphics/SVG/1.1/DTD/svg11.dtd">
<svg xmlns:xlink="http://www.w3.org/1999/xlink" width="300.654pt" height="159.376375pt" viewBox="0 0 300.654 159.376375" xmlns="http://www.w3.org/2000/svg" version="1.1">
 <metadata>
  <rdf:RDF xmlns:dc="http://purl.org/dc/elements/1.1/" xmlns:cc="http://creativecommons.org/ns#" xmlns:rdf="http://www.w3.org/1999/02/22-rdf-syntax-ns#">
   <cc:Work>
    <dc:type rdf:resource="http://purl.org/dc/dcmitype/StillImage"/>
    <dc:date>2023-03-12T00:02:35.161956</dc:date>
    <dc:format>image/svg+xml</dc:format>
    <dc:creator>
     <cc:Agent>
      <dc:title>Matplotlib v3.5.3, https://matplotlib.org/</dc:title>
     </cc:Agent>
    </dc:creator>
   </cc:Work>
  </rdf:RDF>
 </metadata>
 <defs>
  <style type="text/css">*{stroke-linejoin: round; stroke-linecap: butt}</style>
 </defs>
 <g id="figure_1">
  <g id="patch_1">
   <path d="M 0 159.376375 
L 300.654 159.376375 
L 300.654 0 
L 0 0 
z
" style="fill: #ffffff"/>
  </g>
  <g id="axes_1">
   <g id="patch_2">
    <path d="M 114.039 110.101375 
C 115.07011 110.101375 116.059127 109.71447 116.788231 109.025871 
C 117.517336 108.337272 117.927 107.403201 117.927 106.429375 
C 117.927 105.455549 117.517336 104.521478 116.788231 103.832879 
C 116.059127 103.14428 115.07011 102.757375 114.039 102.757375 
C 113.00789 102.757375 112.018873 103.14428 111.289769 103.832879 
C 110.560664 104.521478 110.151 105.455549 110.151 106.429375 
C 110.151 107.403201 110.560664 108.337272 111.289769 109.025871 
C 112.018873 109.71447 113.00789 110.101375 114.039 110.101375 
z
" clip-path="url(#p905fd950fa)" style="fill: #a7b2e6; stroke: #000000; stroke-width: 2; stroke-linejoin: miter"/>
   </g>
   <g id="patch_3">
    <path d="M 25.587 41.404375 
C 26.231444 41.404375 26.849579 41.162559 27.305269 40.732185 
C 27.76096 40.301811 28.017 39.718016 28.017 39.109375 
C 28.017 38.500734 27.76096 37.916939 27.305269 37.486565 
C 26.849579 37.056191 26.231444 36.814375 25.587 36.814375 
C 24.942556 36.814375 24.324421 37.056191 23.868731 37.486565 
C 23.41304 37.916939 23.157 38.500734 23.157 39.109375 
C 23.157 39.718016 23.41304 40.301811 23.868731 40.732185 
C 24.324421 41.162559 24.942556 41.404375 25.587 41.404375 
z
" clip-path="url(#p905fd950fa)" style="stroke: #000000; stroke-width: 2; stroke-linejoin: miter"/>
   </g>
   <g id="patch_4">
    <path d="M 57.987 56.704375 
C 58.631444 56.704375 59.249579 56.462559 59.705269 56.032185 
C 60.16096 55.601811 60.417 55.018016 60.417 54.409375 
C 60.417 53.800734 60.16096 53.216939 59.705269 52.786565 
C 59.249579 52.356191 58.631444 52.114375 57.987 52.114375 
C 57.342556 52.114375 56.724421 52.356191 56.268731 52.786565 
C 55.81304 53.216939 55.557 53.800734 55.557 54.409375 
C 55.557 55.018016 55.81304 55.601811 56.268731 56.032185 
C 56.724421 56.462559 57.342556 56.704375 57.987 56.704375 
z
" clip-path="url(#p905fd950fa)" style="stroke: #000000; stroke-width: 2; stroke-linejoin: miter"/>
   </g>
   <g id="patch_5">
    <path d="M 223.58988 112.549375 
C 224.62099 112.549375 225.610007 112.16247 226.339111 111.473871 
C 227.068216 110.785272 227.47788 109.851201 227.47788 108.877375 
C 227.47788 107.903549 227.068216 106.969478 226.339111 106.280879 
C 225.610007 105.59228 224.62099 105.205375 223.58988 105.205375 
C 222.55877 105.205375 221.569753 105.59228 220.840649 106.280879 
C 220.111544 106.969478 219.70188 107.903549 219.70188 108.877375 
C 219.70188 109.851201 220.111544 110.785272 220.840649 111.473871 
C 221.569753 112.16247 222.55877 112.549375 223.58988 112.549375 
z
" clip-path="url(#p905fd950fa)" style="fill: #f4e4fc; stroke: #000000; stroke-width: 2; stroke-linejoin: miter"/>
   </g>
   <g id="patch_6">
    <path d="M 138.987 62.059375 
L 140.024938 62.02794 
L 141.05861 61.933762 
L 142.08377 61.77723 
L 143.096204 61.558986 
L 144.091753 61.279928 
L 145.066325 60.941201 
L 146.015917 60.544199 
L 146.936624 60.090551 
L 147.824665 59.582123 
L 148.676391 59.021003 
L 149.4883 58.409498 
L 150.257057 57.75012 
L 150.979504 57.045579 
L 151.65267 56.298769 
L 152.273791 55.51276 
L 152.840313 54.690781 
L 153.349909 53.836211 
L 153.800484 52.95256 
L 154.190188 52.04346 
L 154.517419 51.112647 
L 154.780832 50.163945 
L 154.979345 49.201253 
L 155.112142 48.228527 
L 155.178677 47.249764 
L 155.178677 46.268986 
L 155.112142 45.290223 
L 154.979345 44.317497 
L 154.780832 43.354805 
L 154.517419 42.406103 
L 154.190188 41.47529 
L 153.800484 40.56619 
L 153.349909 39.682539 
L 152.840313 38.827969 
L 152.273791 38.00599 
L 151.65267 37.219981 
L 150.979504 36.473171 
L 150.257057 35.76863 
L 149.4883 35.109252 
L 148.676391 34.497747 
L 147.824665 33.936627 
L 146.936624 33.428199 
L 146.015917 32.974551 
L 145.066325 32.577549 
L 144.091753 32.238822 
L 143.096204 31.959764 
L 142.08377 31.74152 
L 141.05861 31.584988 
L 140.024938 31.49081 
L 138.987 31.459375 
L 117.927 31.459375 
L 117.927 46.759375 
L 117.927 62.059375 
z
" clip-path="url(#p905fd950fa)" style="fill: #a7b2e6; stroke: #a7b2e6; stroke-linejoin: miter"/>
   </g>
   <g id="line2d_1">
    <path d="M 138.987 62.059375 
L 140.024938 62.02794 
L 141.05861 61.933762 
L 142.08377 61.77723 
L 143.096204 61.558986 
L 144.091753 61.279928 
L 145.066325 60.941201 
L 146.015917 60.544199 
L 146.936624 60.090551 
L 147.824665 59.582123 
L 148.676391 59.021003 
L 149.4883 58.409498 
L 150.257057 57.75012 
L 150.979504 57.045579 
L 151.65267 56.298769 
L 152.273791 55.51276 
L 152.840313 54.690781 
L 153.349909 53.836211 
L 153.800484 52.95256 
L 154.190188 52.04346 
L 154.517419 51.112647 
L 154.780832 50.163945 
L 154.979345 49.201253 
L 155.112142 48.228527 
L 155.178677 47.249764 
L 155.178677 46.268986 
L 155.112142 45.290223 
L 154.979345 44.317497 
L 154.780832 43.354805 
L 154.517419 42.406103 
L 154.190188 41.47529 
L 153.800484 40.56619 
L 153.349909 39.682539 
L 152.840313 38.827969 
L 152.273791 38.00599 
L 151.65267 37.219981 
L 150.979504 36.473171 
L 150.257057 35.76863 
L 149.4883 35.109252 
L 148.676391 34.497747 
L 147.824665 33.936627 
L 146.936624 33.428199 
L 146.015917 32.974551 
L 145.066325 32.577549 
L 144.091753 32.238822 
L 143.096204 31.959764 
L 142.08377 31.74152 
L 141.05861 31.584988 
L 140.024938 31.49081 
L 138.987 31.459375 
L 117.927 31.459375 
L 117.927 46.759375 
L 117.927 62.059375 
L 138.987 62.059375 
" clip-path="url(#p905fd950fa)" style="fill: none; stroke: #000000; stroke-width: 2; stroke-linecap: round"/>
   </g>
   <g id="line2d_2">
    <path d="M 106.587 54.409375 
L 117.927 54.409375 
" clip-path="url(#p905fd950fa)" style="fill: none; stroke: #000000; stroke-width: 2; stroke-linecap: round"/>
   </g>
   <g id="line2d_3">
    <path d="M 106.587 39.109375 
L 117.927 39.109375 
" clip-path="url(#p905fd950fa)" style="fill: none; stroke: #000000; stroke-width: 2; stroke-linecap: round"/>
   </g>
   <g id="line2d_4">
    <path d="M 106.587 46.759375 
M 155.187 46.759375 
L 166.527 46.759375 
" clip-path="url(#p905fd950fa)" style="fill: none; stroke: #000000; stroke-width: 2; stroke-linecap: round"/>
   </g>
   <g id="patch_7">
    <path d="M 138.987 114.079375 
L 140.024938 114.04794 
L 141.05861 113.953762 
L 142.08377 113.79723 
L 143.096204 113.578986 
L 144.091753 113.299928 
L 145.066325 112.961201 
L 146.015917 112.564199 
L 146.936624 112.110551 
L 147.824665 111.602123 
L 148.676391 111.041003 
L 149.4883 110.429498 
L 150.257057 109.77012 
L 150.979504 109.065579 
L 151.65267 108.318769 
L 152.273791 107.53276 
L 152.840313 106.710781 
L 153.349909 105.856211 
L 153.800484 104.97256 
L 154.190188 104.06346 
L 154.517419 103.132647 
L 154.780832 102.183945 
L 154.979345 101.221253 
L 155.112142 100.248527 
L 155.178677 99.269764 
L 155.178677 98.288986 
L 155.112142 97.310223 
L 154.979345 96.337497 
L 154.780832 95.374805 
L 154.517419 94.426103 
L 154.190188 93.49529 
L 153.800484 92.58619 
L 153.349909 91.702539 
L 152.840313 90.847969 
L 152.273791 90.02599 
L 151.65267 89.239981 
L 150.979504 88.493171 
L 150.257057 87.78863 
L 149.4883 87.129252 
L 148.676391 86.517747 
L 147.824665 85.956627 
L 146.936624 85.448199 
L 146.015917 84.994551 
L 145.066325 84.597549 
L 144.091753 84.258822 
L 143.096204 83.979764 
L 142.08377 83.76152 
L 141.05861 83.604988 
L 140.024938 83.51081 
L 138.987 83.479375 
L 117.927 83.479375 
L 117.927 98.779375 
L 117.927 114.079375 
z
" clip-path="url(#p905fd950fa)" style="fill: #a7b2e6; stroke: #a7b2e6; stroke-linejoin: miter"/>
   </g>
   <g id="line2d_5">
    <path d="M 138.987 114.079375 
L 140.024938 114.04794 
L 141.05861 113.953762 
L 142.08377 113.79723 
L 143.096204 113.578986 
L 144.091753 113.299928 
L 145.066325 112.961201 
L 146.015917 112.564199 
L 146.936624 112.110551 
L 147.824665 111.602123 
L 148.676391 111.041003 
L 149.4883 110.429498 
L 150.257057 109.77012 
L 150.979504 109.065579 
L 151.65267 108.318769 
L 152.273791 107.53276 
L 152.840313 106.710781 
L 153.349909 105.856211 
L 153.800484 104.97256 
L 154.190188 104.06346 
L 154.517419 103.132647 
L 154.780832 102.183945 
L 154.979345 101.221253 
L 155.112142 100.248527 
L 155.178677 99.269764 
L 155.178677 98.288986 
L 155.112142 97.310223 
L 154.979345 96.337497 
L 154.780832 95.374805 
L 154.517419 94.426103 
L 154.190188 93.49529 
L 153.800484 92.58619 
L 153.349909 91.702539 
L 152.840313 90.847969 
L 152.273791 90.02599 
L 151.65267 89.239981 
L 150.979504 88.493171 
L 150.257057 87.78863 
L 149.4883 87.129252 
L 148.676391 86.517747 
L 147.824665 85.956627 
L 146.936624 85.448199 
L 146.015917 84.994551 
L 145.066325 84.597549 
L 144.091753 84.258822 
L 143.096204 83.979764 
L 142.08377 83.76152 
L 141.05861 83.604988 
L 140.024938 83.51081 
L 138.987 83.479375 
L 117.927 83.479375 
L 117.927 98.779375 
L 117.927 114.079375 
L 138.987 114.079375 
" clip-path="url(#p905fd950fa)" style="fill: none; stroke: #000000; stroke-width: 2; stroke-linecap: round"/>
   </g>
   <g id="line2d_6">
    <path d="M 106.587 106.429375 
L 110.151 106.429375 
" clip-path="url(#p905fd950fa)" style="fill: none; stroke: #000000; stroke-width: 2; stroke-linecap: round"/>
   </g>
   <g id="line2d_7">
    <path d="M 106.587 91.129375 
L 117.927 91.129375 
" clip-path="url(#p905fd950fa)" style="fill: none; stroke: #000000; stroke-width: 2; stroke-linecap: round"/>
   </g>
   <g id="line2d_8">
    <path d="M 106.587 98.779375 
M 155.187 98.779375 
L 166.527 98.779375 
" clip-path="url(#p905fd950fa)" style="fill: none; stroke: #000000; stroke-width: 2; stroke-linecap: round"/>
   </g>
   <g id="line2d_9">
    <path d="M 106.587 143.149375 
L 136.557 143.149375 
L 166.527 143.149375 
" clip-path="url(#p905fd950fa)" style="fill: none; stroke: #000000; stroke-width: 2; stroke-linecap: round"/>
   </g>
   <g id="line2d_10">
    <path d="M 90.387 23.809375 
L 90.387 65.119375 
L 90.387 106.429375 
" clip-path="url(#p905fd950fa)" style="fill: none; stroke: #000000; stroke-width: 2; stroke-linecap: round"/>
   </g>
   <g id="line2d_11">
    <path d="M 57.987 23.809375 
L 57.987 83.479375 
L 57.987 143.149375 
" clip-path="url(#p905fd950fa)" style="fill: none; stroke: #000000; stroke-width: 2; stroke-linecap: round"/>
   </g>
   <g id="line2d_12">
    <path d="M 25.587 23.809375 
L 25.587 57.469375 
L 25.587 91.129375 
" clip-path="url(#p905fd950fa)" style="fill: none; stroke: #000000; stroke-width: 2; stroke-linecap: round"/>
   </g>
   <g id="line2d_13">
    <path d="M 106.587 39.109375 
L 66.087 39.109375 
L 25.587 39.109375 
" clip-path="url(#p905fd950fa)" style="fill: none; stroke: #000000; stroke-width: 2; stroke-linecap: round"/>
   </g>
   <g id="line2d_14">
    <path d="M 25.587 39.109375 
" clip-path="url(#p905fd950fa)" style="fill: none; stroke: #000000; stroke-width: 2; stroke-linecap: round"/>
   </g>
   <g id="line2d_15">
    <path d="M 106.587 54.409375 
L 82.287 54.409375 
L 57.987 54.409375 
" clip-path="url(#p905fd950fa)" style="fill: none; stroke: #000000; stroke-width: 2; stroke-linecap: round"/>
   </g>
   <g id="line2d_16">
    <path d="M 57.987 54.409375 
" clip-path="url(#p905fd950fa)" style="fill: none; stroke: #000000; stroke-width: 2; stroke-linecap: round"/>
   </g>
   <g id="line2d_17">
    <path d="M 106.587 91.129375 
L 66.087 91.129375 
L 25.587 91.129375 
" clip-path="url(#p905fd950fa)" style="fill: none; stroke: #000000; stroke-width: 2; stroke-linecap: round"/>
   </g>
   <g id="line2d_18">
    <path d="M 106.587 106.429375 
L 98.487 106.429375 
L 90.387 106.429375 
" clip-path="url(#p905fd950fa)" style="fill: none; stroke: #000000; stroke-width: 2; stroke-linecap: round"/>
   </g>
   <g id="line2d_19">
    <path d="M 106.587 143.149375 
L 82.287 143.149375 
L 57.987 143.149375 
" clip-path="url(#p905fd950fa)" style="fill: none; stroke: #000000; stroke-width: 2; stroke-linecap: round"/>
   </g>
   <g id="patch_8">
    <path d="M 223.227 113.773375 
L 239.427 113.773375 
L 239.889857 113.76713 
L 240.352714 113.748395 
L 240.815571 113.717171 
L 241.278429 113.673457 
L 241.741286 113.617253 
L 242.204143 113.548559 
L 242.667 113.467375 
L 243.129857 113.373702 
L 243.592714 113.267538 
L 244.055571 113.148885 
L 244.518429 113.017742 
L 244.981286 112.87411 
L 245.444143 112.717987 
L 245.907 112.549375 
L 246.369857 112.368273 
L 246.832714 112.174681 
L 247.295571 111.968599 
L 247.758429 111.750028 
L 248.221286 111.518967 
L 248.684143 111.275416 
L 249.147 111.019375 
L 249.609857 110.750844 
L 250.072714 110.469824 
L 250.535571 110.176314 
L 250.998429 109.870314 
L 251.461286 109.551824 
L 251.924143 109.220844 
L 252.387 108.877375 
L 252.849857 108.521416 
L 253.312714 108.152967 
L 253.775571 107.772028 
L 254.238429 107.378599 
L 254.701286 106.972681 
L 255.164143 106.554273 
L 255.627 106.123375 
L 256.089857 105.679987 
L 256.552714 105.22411 
L 257.015571 104.755742 
L 257.478429 104.274885 
L 257.941286 103.781538 
L 258.404143 103.275702 
L 258.867 102.757375 
L 259.329857 102.226559 
L 259.792714 101.683253 
L 260.255571 101.127457 
L 260.718429 100.559171 
L 261.181286 99.978395 
L 261.644143 99.38513 
L 262.107 98.779375 
L 262.107 98.779375 
L 261.644143 98.17362 
L 261.181286 97.580355 
L 260.718429 96.999579 
L 260.255571 96.431293 
L 259.792714 95.875497 
L 259.329857 95.332191 
L 258.867 94.801375 
L 258.404143 94.283048 
L 257.941286 93.777212 
L 257.478429 93.283865 
L 257.015571 92.803008 
L 256.552714 92.33464 
L 256.089857 91.878763 
L 255.627 91.435375 
L 255.164143 91.004477 
L 254.701286 90.586069 
L 254.238429 90.180151 
L 253.775571 89.786722 
L 253.312714 89.405783 
L 252.849857 89.037334 
L 252.387 88.681375 
L 251.924143 88.337906 
L 251.461286 88.006926 
L 250.998429 87.688436 
L 250.535571 87.382436 
L 250.072714 87.088926 
L 249.609857 86.807906 
L 249.147 86.539375 
L 248.684143 86.283334 
L 248.221286 86.039783 
L 247.758429 85.808722 
L 247.295571 85.590151 
L 246.832714 85.384069 
L 246.369857 85.190477 
L 245.907 85.009375 
L 245.444143 84.840763 
L 244.981286 84.68464 
L 244.518429 84.541008 
L 244.055571 84.409865 
L 243.592714 84.291212 
L 243.129857 84.185048 
L 242.667 84.091375 
L 242.204143 84.010191 
L 241.741286 83.941497 
L 241.278429 83.885293 
L 240.815571 83.841579 
L 240.352714 83.810355 
L 239.889857 83.79162 
L 239.427 83.785375 
L 223.227 83.785375 
L 223.227 83.785375 
L 223.84908 84.397375 
L 224.44524 85.009375 
L 225.01548 85.621375 
L 225.5598 86.233375 
L 226.0782 86.845375 
L 226.57068 87.457375 
L 227.03724 88.069375 
L 227.47788 88.681375 
L 227.8926 89.293375 
L 228.2814 89.905375 
L 228.64428 90.517375 
L 228.98124 91.129375 
L 229.29228 91.741375 
L 229.5774 92.353375 
L 229.8366 92.965375 
L 230.06988 93.577375 
L 230.27724 94.189375 
L 230.45868 94.801375 
L 230.6142 95.413375 
L 230.7438 96.025375 
L 230.84748 96.637375 
L 230.92524 97.249375 
L 230.97708 97.861375 
L 231.003 98.473375 
L 231.003 99.085375 
L 230.97708 99.697375 
L 230.92524 100.309375 
L 230.84748 100.921375 
L 230.7438 101.533375 
L 230.6142 102.145375 
L 230.45868 102.757375 
L 230.27724 103.369375 
L 230.06988 103.981375 
L 229.8366 104.593375 
L 229.5774 105.205375 
L 229.29228 105.817375 
L 228.98124 106.429375 
L 228.64428 107.041375 
L 228.2814 107.653375 
L 227.8926 108.265375 
L 227.47788 108.877375 
L 227.03724 109.489375 
L 226.57068 110.101375 
L 226.0782 110.713375 
L 225.5598 111.325375 
L 225.01548 111.937375 
L 224.44524 112.549375 
L 223.84908 113.161375 
z
" clip-path="url(#p905fd950fa)" style="fill: #f4e4fc; stroke: #f4e4fc; stroke-linejoin: miter"/>
   </g>
   <g id="line2d_20">
    <path d="M 223.227 113.773375 
L 241.278429 113.673457 
L 243.129857 113.373702 
L 244.981286 112.87411 
L 246.832714 112.174681 
L 248.684143 111.275416 
L 250.998429 109.870314 
L 253.312714 108.152967 
L 255.627 106.123375 
L 257.941286 103.781538 
L 260.255571 101.127457 
L 262.107 98.779375 
L 262.107 98.779375 
L 259.792714 95.875497 
L 257.478429 93.283865 
L 255.164143 91.004477 
L 252.849857 89.037334 
L 250.535571 87.382436 
L 248.221286 86.039783 
L 246.369857 85.190477 
L 244.518429 84.541008 
L 242.667 84.091375 
L 240.815571 83.841579 
L 239.427 83.785375 
L 223.227 83.785375 
L 223.227 83.785375 
L 225.5598 86.233375 
L 227.03724 88.069375 
L 228.2814 89.905375 
L 229.29228 91.741375 
L 230.06988 93.577375 
L 230.6142 95.413375 
L 230.92524 97.249375 
L 231.003 99.085375 
L 230.84748 100.921375 
L 230.45868 102.757375 
L 229.8366 104.593375 
L 228.98124 106.429375 
L 227.8926 108.265375 
L 226.57068 110.101375 
L 225.01548 111.937375 
L 223.227 113.773375 
L 223.227 113.773375 
" clip-path="url(#p905fd950fa)" style="fill: none; stroke: #000000; stroke-width: 2; stroke-linecap: round"/>
   </g>
   <g id="line2d_21">
    <path d="M 211.887 108.877375 
L 219.70188 108.877375 
" clip-path="url(#p905fd950fa)" style="fill: none; stroke: #000000; stroke-width: 2; stroke-linecap: round"/>
   </g>
   <g id="line2d_22">
    <path d="M 211.887 98.779375 
L 231.00624 98.779375 
" clip-path="url(#p905fd950fa)" style="fill: none; stroke: #000000; stroke-width: 2; stroke-linecap: round"/>
   </g>
   <g id="line2d_23">
    <path d="M 211.887 88.681375 
L 227.47788 88.681375 
" clip-path="url(#p905fd950fa)" style="fill: none; stroke: #000000; stroke-width: 2; stroke-linecap: round"/>
   </g>
   <g id="line2d_24">
    <path d="M 211.887 98.779375 
M 262.107 98.779375 
L 273.447 98.779375 
" clip-path="url(#p905fd950fa)" style="fill: none; stroke: #000000; stroke-width: 2; stroke-linecap: round"/>
   </g>
   <g id="line2d_25">
    <path d="M 273.447 98.779375 
L 275.472 98.779375 
L 277.497 98.779375 
" clip-path="url(#p905fd950fa)" style="fill: none; stroke: #000000; stroke-width: 2; stroke-linecap: round"/>
   </g>
   <g id="line2d_26">
    <path d="M 166.527 98.779375 
L 189.828548 98.779375 
L 213.130095 98.779375 
" clip-path="url(#p905fd950fa)" style="fill: none; stroke: #000000; stroke-width: 2; stroke-linecap: round"/>
   </g>
   <g id="line2d_27">
    <path d="M 166.527 46.759375 
L 190.827 46.759375 
L 215.127 46.759375 
" clip-path="url(#p905fd950fa)" style="fill: none; stroke: #000000; stroke-width: 2; stroke-linecap: round"/>
   </g>
   <g id="line2d_28">
    <path d="M 215.127 46.759375 
L 215.127 67.720375 
L 215.127 88.681375 
" clip-path="url(#p905fd950fa)" style="fill: none; stroke: #000000; stroke-width: 2; stroke-linecap: round"/>
   </g>
   <g id="line2d_29">
    <path d="M 215.127 88.681375 
L 216.747 88.681375 
L 218.367 88.681375 
" clip-path="url(#p905fd950fa)" style="fill: none; stroke: #000000; stroke-width: 2; stroke-linecap: round"/>
   </g>
   <g id="line2d_30">
    <path d="M 166.527 143.149375 
L 190.827 143.149375 
L 215.127 143.149375 
" clip-path="url(#p905fd950fa)" style="fill: none; stroke: #000000; stroke-width: 2; stroke-linecap: round"/>
   </g>
   <g id="line2d_31">
    <path d="M 215.127 143.149375 
L 215.127 126.013375 
L 215.127 108.877375 
" clip-path="url(#p905fd950fa)" style="fill: none; stroke: #000000; stroke-width: 2; stroke-linecap: round"/>
   </g>
   <g id="line2d_32">
    <path d="M 215.127 108.877375 
L 216.747 108.877375 
L 218.367 108.877375 
" clip-path="url(#p905fd950fa)" style="fill: none; stroke: #000000; stroke-width: 2; stroke-linecap: round"/>
   </g>
   <g id="text_1">
    <!-- c -->
    <g transform="translate(86.538094 17.837812)scale(0.14 -0.14)">
     <defs>
      <path id="DejaVuSans-63" d="M 3122 3366 
L 3122 2828 
Q 2878 2963 2633 3030 
Q 2388 3097 2138 3097 
Q 1578 3097 1268 2742 
Q 959 2388 959 1747 
Q 959 1106 1268 751 
Q 1578 397 2138 397 
Q 2388 397 2633 464 
Q 2878 531 3122 666 
L 3122 134 
Q 2881 22 2623 -34 
Q 2366 -91 2075 -91 
Q 1284 -91 818 406 
Q 353 903 353 1747 
Q 353 2603 823 3093 
Q 1294 3584 2113 3584 
Q 2378 3584 2631 3529 
Q 2884 3475 3122 3366 
z
" transform="scale(0.015625)"/>
     </defs>
     <use xlink:href="#DejaVuSans-63"/>
    </g>
   </g>
   <g id="text_2">
    <!-- b -->
    <g transform="translate(53.543094 17.837812)scale(0.14 -0.14)">
     <defs>
      <path id="DejaVuSans-62" d="M 3116 1747 
Q 3116 2381 2855 2742 
Q 2594 3103 2138 3103 
Q 1681 3103 1420 2742 
Q 1159 2381 1159 1747 
Q 1159 1113 1420 752 
Q 1681 391 2138 391 
Q 2594 391 2855 752 
Q 3116 1113 3116 1747 
z
M 1159 2969 
Q 1341 3281 1617 3432 
Q 1894 3584 2278 3584 
Q 2916 3584 3314 3078 
Q 3713 2572 3713 1747 
Q 3713 922 3314 415 
Q 2916 -91 2278 -91 
Q 1894 -91 1617 61 
Q 1341 213 1159 525 
L 1159 0 
L 581 0 
L 581 4863 
L 1159 4863 
L 1159 2969 
z
" transform="scale(0.015625)"/>
     </defs>
     <use xlink:href="#DejaVuSans-62"/>
    </g>
   </g>
   <g id="text_3">
    <!-- a -->
    <g transform="translate(21.297313 17.837812)scale(0.14 -0.14)">
     <defs>
      <path id="DejaVuSans-61" d="M 2194 1759 
Q 1497 1759 1228 1600 
Q 959 1441 959 1056 
Q 959 750 1161 570 
Q 1363 391 1709 391 
Q 2188 391 2477 730 
Q 2766 1069 2766 1631 
L 2766 1759 
L 2194 1759 
z
M 3341 1997 
L 3341 0 
L 2766 0 
L 2766 531 
Q 2569 213 2275 61 
Q 1981 -91 1556 -91 
Q 1019 -91 701 211 
Q 384 513 384 1019 
Q 384 1609 779 1909 
Q 1175 2209 1959 2209 
L 2766 2209 
L 2766 2266 
Q 2766 2663 2505 2880 
Q 2244 3097 1772 3097 
Q 1472 3097 1187 3025 
Q 903 2953 641 2809 
L 641 3341 
Q 956 3463 1253 3523 
Q 1550 3584 1831 3584 
Q 2591 3584 2966 3190 
Q 3341 2797 3341 1997 
z
" transform="scale(0.015625)"/>
     </defs>
     <use xlink:href="#DejaVuSans-61"/>
    </g>
   </g>
   <g id="text_4">
    <!-- F -->
    <g transform="translate(275.472 86.687812)scale(0.14 -0.14)">
     <defs>
      <path id="DejaVuSans-46" d="M 628 4666 
L 3309 4666 
L 3309 4134 
L 1259 4134 
L 1259 2759 
L 3109 2759 
L 3109 2228 
L 1259 2228 
L 1259 0 
L 628 0 
L 628 4666 
z
" transform="scale(0.015625)"/>
     </defs>
     <use xlink:href="#DejaVuSans-46"/>
    </g>
   </g>
  </g>
 </g>
 <defs>
  <clipPath id="p905fd950fa">
   <rect x="7.2" y="14.782375" width="286.254" height="137.394"/>
  </clipPath>
 </defs>
</svg>
