<?xml version="1.0" encoding="utf-8" standalone="no"?>
<!DOCTYPE svg PUBLIC "-//W3C//DTD SVG 1.1//EN"
  "http://www.w3.org/Graphics/SVG/1.1/DTD/svg11.dtd">
<svg xmlns:xlink="http://www.w3.org/1999/xlink" width="374.2506pt" height="210.699pt" viewBox="0 0 374.2506 210.699" xmlns="http://www.w3.org/2000/svg" version="1.1">
 <metadata>
  <rdf:RDF xmlns:dc="http://purl.org/dc/elements/1.1/" xmlns:cc="http://creativecommons.org/ns#" xmlns:rdf="http://www.w3.org/1999/02/22-rdf-syntax-ns#">
   <cc:Work>
    <dc:type rdf:resource="http://purl.org/dc/dcmitype/StillImage"/>
    <dc:date>2023-03-12T00:04:27.842564</dc:date>
    <dc:format>image/svg+xml</dc:format>
    <dc:creator>
     <cc:Agent>
      <dc:title>Matplotlib v3.5.3, https://matplotlib.org/</dc:title>
     </cc:Agent>
    </dc:creator>
   </cc:Work>
  </rdf:RDF>
 </metadata>
 <defs>
  <style type="text/css">*{stroke-linejoin: round; stroke-linecap: butt}</style>
 </defs>
 <g id="figure_1">
  <g id="patch_1">
   <path d="M 0 210.699 
L 374.2506 210.699 
L 374.2506 0 
L 0 0 
z
" style="fill: #ffffff"/>
  </g>
  <g id="axes_1">
   <g id="patch_2">
    <path d="M 28.9323 105.3495 
C 29.576744 105.3495 30.194879 105.107684 30.650569 104.67731 
C 31.10626 104.246936 31.3623 103.663141 31.3623 103.0545 
C 31.3623 102.445859 31.10626 101.862064 30.650569 101.43169 
C 30.194879 101.001316 29.576744 100.7595 28.9323 100.7595 
C 28.287856 100.7595 27.669721 101.001316 27.214031 101.43169 
C 26.75834 101.862064 26.5023 102.445859 26.5023 103.0545 
C 26.5023 103.663141 26.75834 104.246936 27.214031 104.67731 
C 27.669721 105.107684 28.287856 105.3495 28.9323 105.3495 
z
" clip-path="url(#p2ca19c645f)" style="stroke: #000000; stroke-width: 2; stroke-linejoin: miter"/>
   </g>
   <g id="patch_3">
    <path d="M 226.5723 112.9995 
C 227.216744 112.9995 227.834879 112.757684 228.290569 112.32731 
C 228.74626 111.896936 229.0023 111.313141 229.0023 110.7045 
C 229.0023 110.095859 228.74626 109.512064 228.290569 109.08169 
C 227.834879 108.651316 227.216744 108.4095 226.5723 108.4095 
C 225.927856 108.4095 225.309721 108.651316 224.854031 109.08169 
C 224.39834 109.512064 224.1423 110.095859 224.1423 110.7045 
C 224.1423 111.313141 224.39834 111.896936 224.854031 112.32731 
C 225.309721 112.757684 225.927856 112.9995 226.5723 112.9995 
z
" clip-path="url(#p2ca19c645f)" style="stroke: #000000; stroke-width: 2; stroke-linejoin: miter"/>
   </g>
   <g id="patch_4">
    <path d="M 142.3323 126.0045 
L 143.370238 125.973065 
L 144.40391 125.878887 
L 145.42907 125.722355 
L 146.441504 125.504111 
L 147.437053 125.225053 
L 148.411625 124.886326 
L 149.361217 124.489324 
L 150.281924 124.035676 
L 151.169965 123.527248 
L 152.021691 122.966128 
L 152.8336 122.354623 
L 153.602357 121.695245 
L 154.324804 120.990704 
L 154.99797 120.243894 
L 155.619091 119.457885 
L 156.185613 118.635906 
L 156.695209 117.781336 
L 157.145784 116.897685 
L 157.535488 115.988585 
L 157.862719 115.057772 
L 158.126132 114.10907 
L 158.324645 113.146378 
L 158.457442 112.173652 
L 158.523977 111.194889 
L 158.523977 110.214111 
L 158.457442 109.235348 
L 158.324645 108.262622 
L 158.126132 107.29993 
L 157.862719 106.351228 
L 157.535488 105.420415 
L 157.145784 104.511315 
L 156.695209 103.627664 
L 156.185613 102.773094 
L 155.619091 101.951115 
L 154.99797 101.165106 
L 154.324804 100.418296 
L 153.602357 99.713755 
L 152.8336 99.054377 
L 152.021691 98.442872 
L 151.169965 97.881752 
L 150.281924 97.373324 
L 149.361217 96.919676 
L 148.411625 96.522674 
L 147.437053 96.183947 
L 146.441504 95.904889 
L 145.42907 95.686645 
L 144.40391 95.530113 
L 143.370238 95.435935 
L 142.3323 95.4045 
L 121.2723 95.4045 
L 121.2723 110.7045 
L 121.2723 126.0045 
z
" clip-path="url(#p2ca19c645f)" style="fill: #fffacd; stroke: #fffacd; stroke-linejoin: miter"/>
   </g>
   <g id="line2d_1">
    <path d="M 142.3323 126.0045 
L 143.370238 125.973065 
L 144.40391 125.878887 
L 145.42907 125.722355 
L 146.441504 125.504111 
L 147.437053 125.225053 
L 148.411625 124.886326 
L 149.361217 124.489324 
L 150.281924 124.035676 
L 151.169965 123.527248 
L 152.021691 122.966128 
L 152.8336 122.354623 
L 153.602357 121.695245 
L 154.324804 120.990704 
L 154.99797 120.243894 
L 155.619091 119.457885 
L 156.185613 118.635906 
L 156.695209 117.781336 
L 157.145784 116.897685 
L 157.535488 115.988585 
L 157.862719 115.057772 
L 158.126132 114.10907 
L 158.324645 113.146378 
L 158.457442 112.173652 
L 158.523977 111.194889 
L 158.523977 110.214111 
L 158.457442 109.235348 
L 158.324645 108.262622 
L 158.126132 107.29993 
L 157.862719 106.351228 
L 157.535488 105.420415 
L 157.145784 104.511315 
L 156.695209 103.627664 
L 156.185613 102.773094 
L 155.619091 101.951115 
L 154.99797 101.165106 
L 154.324804 100.418296 
L 153.602357 99.713755 
L 152.8336 99.054377 
L 152.021691 98.442872 
L 151.169965 97.881752 
L 150.281924 97.373324 
L 149.361217 96.919676 
L 148.411625 96.522674 
L 147.437053 96.183947 
L 146.441504 95.904889 
L 145.42907 95.686645 
L 144.40391 95.530113 
L 143.370238 95.435935 
L 142.3323 95.4045 
L 121.2723 95.4045 
L 121.2723 110.7045 
L 121.2723 126.0045 
L 142.3323 126.0045 
" clip-path="url(#p2ca19c645f)" style="fill: none; stroke: #000000; stroke-width: 2; stroke-linecap: round"/>
   </g>
   <g id="line2d_2">
    <path d="M 109.9323 118.3545 
L 121.2723 118.3545 
" clip-path="url(#p2ca19c645f)" style="fill: none; stroke: #000000; stroke-width: 2; stroke-linecap: round"/>
   </g>
   <g id="line2d_3">
    <path d="M 109.9323 103.0545 
L 121.2723 103.0545 
" clip-path="url(#p2ca19c645f)" style="fill: none; stroke: #000000; stroke-width: 2; stroke-linecap: round"/>
   </g>
   <g id="line2d_4">
    <path d="M 109.9323 110.7045 
M 158.5323 110.7045 
L 169.8723 110.7045 
" clip-path="url(#p2ca19c645f)" style="fill: none; stroke: #000000; stroke-width: 2; stroke-linecap: round"/>
   </g>
   <g id="line2d_5">
    <path d="M 109.9323 155.0745 
L 139.9023 155.0745 
L 169.8723 155.0745 
" clip-path="url(#p2ca19c645f)" style="fill: none; stroke: #000000; stroke-width: 2; stroke-linecap: round"/>
   </g>
   <g id="line2d_6">
    <path d="M 109.9323 191.7945 
L 139.9023 191.7945 
L 169.8723 191.7945 
" clip-path="url(#p2ca19c645f)" style="fill: none; stroke: #000000; stroke-width: 2; stroke-linecap: round"/>
   </g>
   <g id="line2d_7">
    <path d="M 93.7323 87.7545 
L 93.7323 139.7745 
L 93.7323 191.7945 
" clip-path="url(#p2ca19c645f)" style="fill: none; stroke: #000000; stroke-width: 2; stroke-linecap: round"/>
   </g>
   <g id="line2d_8">
    <path d="M 61.3323 87.7545 
L 61.3323 103.0545 
L 61.3323 118.3545 
" clip-path="url(#p2ca19c645f)" style="fill: none; stroke: #000000; stroke-width: 2; stroke-linecap: round"/>
   </g>
   <g id="line2d_9">
    <path d="M 28.9323 87.7545 
L 28.9323 121.4145 
L 28.9323 155.0745 
" clip-path="url(#p2ca19c645f)" style="fill: none; stroke: #000000; stroke-width: 2; stroke-linecap: round"/>
   </g>
   <g id="line2d_10">
    <path d="M 109.9323 103.0545 
L 69.4323 103.0545 
L 28.9323 103.0545 
" clip-path="url(#p2ca19c645f)" style="fill: none; stroke: #000000; stroke-width: 2; stroke-linecap: round"/>
   </g>
   <g id="line2d_11">
    <path d="M 28.9323 103.0545 
" clip-path="url(#p2ca19c645f)" style="fill: none; stroke: #000000; stroke-width: 2; stroke-linecap: round"/>
   </g>
   <g id="line2d_12">
    <path d="M 109.9323 118.3545 
L 85.6323 118.3545 
L 61.3323 118.3545 
" clip-path="url(#p2ca19c645f)" style="fill: none; stroke: #000000; stroke-width: 2; stroke-linecap: round"/>
   </g>
   <g id="line2d_13">
    <path d="M 109.9323 155.0745 
L 69.4323 155.0745 
L 28.9323 155.0745 
" clip-path="url(#p2ca19c645f)" style="fill: none; stroke: #000000; stroke-width: 2; stroke-linecap: round"/>
   </g>
   <g id="line2d_14">
    <path d="M 109.9323 191.7945 
L 101.8323 191.7945 
L 93.7323 191.7945 
" clip-path="url(#p2ca19c645f)" style="fill: none; stroke: #000000; stroke-width: 2; stroke-linecap: round"/>
   </g>
   <g id="patch_5">
    <path d="M 250.5483 66.3345 
L 250.5483 51.0345 
L 250.541688 50.597357 
L 250.521851 50.160214 
L 250.48879 49.723071 
L 250.442504 49.285929 
L 250.382994 48.848786 
L 250.310259 48.411643 
L 250.2243 47.9745 
L 250.125116 47.537357 
L 250.012708 47.100214 
L 249.887076 46.663071 
L 249.748218 46.225929 
L 249.596137 45.788786 
L 249.430831 45.351643 
L 249.2523 44.9145 
L 249.060545 44.477357 
L 248.855565 44.040214 
L 248.637361 43.603071 
L 248.405933 43.165929 
L 248.16128 42.728786 
L 247.903402 42.291643 
L 247.6323 41.8545 
L 247.347973 41.417357 
L 247.050422 40.980214 
L 246.739647 40.543071 
L 246.415647 40.105929 
L 246.078422 39.668786 
L 245.727973 39.231643 
L 245.3643 38.7945 
L 244.987402 38.357357 
L 244.59728 37.920214 
L 244.193933 37.483071 
L 243.777361 37.045929 
L 243.347565 36.608786 
L 242.904545 36.171643 
L 242.4483 35.7345 
L 241.978831 35.297357 
L 241.496137 34.860214 
L 241.000218 34.423071 
L 240.491076 33.985929 
L 239.968708 33.548786 
L 239.433116 33.111643 
L 238.8843 32.6745 
L 238.322259 32.237357 
L 237.746994 31.800214 
L 237.158504 31.363071 
L 236.55679 30.925929 
L 235.941851 30.488786 
L 235.313688 30.051643 
L 234.6723 29.6145 
L 234.6723 29.6145 
L 234.030912 30.051643 
L 233.402749 30.488786 
L 232.78781 30.925929 
L 232.186096 31.363071 
L 231.597606 31.800214 
L 231.022341 32.237357 
L 230.4603 32.6745 
L 229.911484 33.111643 
L 229.375892 33.548786 
L 228.853524 33.985929 
L 228.344382 34.423071 
L 227.848463 34.860214 
L 227.365769 35.297357 
L 226.8963 35.7345 
L 226.440055 36.171643 
L 225.997035 36.608786 
L 225.567239 37.045929 
L 225.150667 37.483071 
L 224.74732 37.920214 
L 224.357198 38.357357 
L 223.9803 38.7945 
L 223.616627 39.231643 
L 223.266178 39.668786 
L 222.928953 40.105929 
L 222.604953 40.543071 
L 222.294178 40.980214 
L 221.996627 41.417357 
L 221.7123 41.8545 
L 221.441198 42.291643 
L 221.18332 42.728786 
L 220.938667 43.165929 
L 220.707239 43.603071 
L 220.489035 44.040214 
L 220.284055 44.477357 
L 220.0923 44.9145 
L 219.913769 45.351643 
L 219.748463 45.788786 
L 219.596382 46.225929 
L 219.457524 46.663071 
L 219.331892 47.100214 
L 219.219484 47.537357 
L 219.1203 47.9745 
L 219.034341 48.411643 
L 218.961606 48.848786 
L 218.902096 49.285929 
L 218.85581 49.723071 
L 218.822749 50.160214 
L 218.802912 50.597357 
L 218.7963 51.0345 
L 218.7963 66.3345 
L 218.7963 66.3345 
L 219.4443 65.74698 
L 220.0923 65.18394 
L 220.7403 64.64538 
L 221.3883 64.1313 
L 222.0363 63.6417 
L 222.6843 63.17658 
L 223.3323 62.73594 
L 223.9803 62.31978 
L 224.6283 61.9281 
L 225.2763 61.5609 
L 225.9243 61.21818 
L 226.5723 60.89994 
L 227.2203 60.60618 
L 227.8683 60.3369 
L 228.5163 60.0921 
L 229.1643 59.87178 
L 229.8123 59.67594 
L 230.4603 59.50458 
L 231.1083 59.3577 
L 231.7563 59.2353 
L 232.4043 59.13738 
L 233.0523 59.06394 
L 233.7003 59.01498 
L 234.3483 58.9905 
L 234.9963 58.9905 
L 235.6443 59.01498 
L 236.2923 59.06394 
L 236.9403 59.13738 
L 237.5883 59.2353 
L 238.2363 59.3577 
L 238.8843 59.50458 
L 239.5323 59.67594 
L 240.1803 59.87178 
L 240.8283 60.0921 
L 241.4763 60.3369 
L 242.1243 60.60618 
L 242.7723 60.89994 
L 243.4203 61.21818 
L 244.0683 61.5609 
L 244.7163 61.9281 
L 245.3643 62.31978 
L 246.0123 62.73594 
L 246.6603 63.17658 
L 247.3083 63.6417 
L 247.9563 64.1313 
L 248.6043 64.64538 
L 249.2523 65.18394 
L 249.9003 65.74698 
z
" clip-path="url(#p2ca19c645f)" style="fill: #add8e6; stroke: #add8e6; stroke-linejoin: miter"/>
   </g>
   <g id="line2d_15">
    <path d="M 250.5483 66.3345 
L 250.442504 49.285929 
L 250.125116 47.537357 
L 249.596137 45.788786 
L 248.855565 44.040214 
L 247.903402 42.291643 
L 246.739647 40.543071 
L 244.987402 38.357357 
L 242.904545 36.171643 
L 240.491076 33.985929 
L 237.746994 31.800214 
L 234.6723 29.6145 
L 234.6723 29.6145 
L 231.597606 31.800214 
L 228.853524 33.985929 
L 226.440055 36.171643 
L 224.357198 38.357357 
L 222.604953 40.543071 
L 221.18332 42.728786 
L 220.284055 44.477357 
L 219.596382 46.225929 
L 219.1203 47.9745 
L 218.85581 49.723071 
L 218.7963 51.0345 
L 218.7963 66.3345 
L 218.7963 66.3345 
L 221.3883 64.1313 
L 223.3323 62.73594 
L 225.2763 61.5609 
L 227.2203 60.60618 
L 229.1643 59.87178 
L 231.1083 59.3577 
L 233.0523 59.06394 
L 234.9963 58.9905 
L 236.9403 59.13738 
L 238.8843 59.50458 
L 240.8283 60.0921 
L 242.7723 60.89994 
L 244.7163 61.9281 
L 246.6603 63.17658 
L 248.6043 64.64538 
L 250.5483 66.3345 
L 250.5483 66.3345 
" clip-path="url(#p2ca19c645f)" style="fill: none; stroke: #000000; stroke-width: 2; stroke-linecap: round"/>
   </g>
   <g id="line2d_16">
    <path d="M 242.7723 77.0445 
L 242.7723 60.89994 
" clip-path="url(#p2ca19c645f)" style="fill: none; stroke: #000000; stroke-width: 2; stroke-linecap: round"/>
   </g>
   <g id="line2d_17">
    <path d="M 226.5723 77.0445 
L 226.5723 60.89994 
" clip-path="url(#p2ca19c645f)" style="fill: none; stroke: #000000; stroke-width: 2; stroke-linecap: round"/>
   </g>
   <g id="line2d_18">
    <path d="M 234.6723 77.0445 
M 234.6723 29.6145 
L 234.6723 18.9045 
" clip-path="url(#p2ca19c645f)" style="fill: none; stroke: #000000; stroke-width: 2; stroke-linecap: round"/>
   </g>
   <g id="patch_6">
    <path d="M 347.7483 66.3345 
L 347.7483 51.0345 
L 347.741688 50.597357 
L 347.721851 50.160214 
L 347.68879 49.723071 
L 347.642504 49.285929 
L 347.582994 48.848786 
L 347.510259 48.411643 
L 347.4243 47.9745 
L 347.325116 47.537357 
L 347.212708 47.100214 
L 347.087076 46.663071 
L 346.948218 46.225929 
L 346.796137 45.788786 
L 346.630831 45.351643 
L 346.4523 44.9145 
L 346.260545 44.477357 
L 346.055565 44.040214 
L 345.837361 43.603071 
L 345.605933 43.165929 
L 345.36128 42.728786 
L 345.103402 42.291643 
L 344.8323 41.8545 
L 344.547973 41.417357 
L 344.250422 40.980214 
L 343.939647 40.543071 
L 343.615647 40.105929 
L 343.278422 39.668786 
L 342.927973 39.231643 
L 342.5643 38.7945 
L 342.187402 38.357357 
L 341.79728 37.920214 
L 341.393933 37.483071 
L 340.977361 37.045929 
L 340.547565 36.608786 
L 340.104545 36.171643 
L 339.6483 35.7345 
L 339.178831 35.297357 
L 338.696137 34.860214 
L 338.200218 34.423071 
L 337.691076 33.985929 
L 337.168708 33.548786 
L 336.633116 33.111643 
L 336.0843 32.6745 
L 335.522259 32.237357 
L 334.946994 31.800214 
L 334.358504 31.363071 
L 333.75679 30.925929 
L 333.141851 30.488786 
L 332.513688 30.051643 
L 331.8723 29.6145 
L 331.8723 29.6145 
L 331.230912 30.051643 
L 330.602749 30.488786 
L 329.98781 30.925929 
L 329.386096 31.363071 
L 328.797606 31.800214 
L 328.222341 32.237357 
L 327.6603 32.6745 
L 327.111484 33.111643 
L 326.575892 33.548786 
L 326.053524 33.985929 
L 325.544382 34.423071 
L 325.048463 34.860214 
L 324.565769 35.297357 
L 324.0963 35.7345 
L 323.640055 36.171643 
L 323.197035 36.608786 
L 322.767239 37.045929 
L 322.350667 37.483071 
L 321.94732 37.920214 
L 321.557198 38.357357 
L 321.1803 38.7945 
L 320.816627 39.231643 
L 320.466178 39.668786 
L 320.128953 40.105929 
L 319.804953 40.543071 
L 319.494178 40.980214 
L 319.196627 41.417357 
L 318.9123 41.8545 
L 318.641198 42.291643 
L 318.38332 42.728786 
L 318.138667 43.165929 
L 317.907239 43.603071 
L 317.689035 44.040214 
L 317.484055 44.477357 
L 317.2923 44.9145 
L 317.113769 45.351643 
L 316.948463 45.788786 
L 316.796382 46.225929 
L 316.657524 46.663071 
L 316.531892 47.100214 
L 316.419484 47.537357 
L 316.3203 47.9745 
L 316.234341 48.411643 
L 316.161606 48.848786 
L 316.102096 49.285929 
L 316.05581 49.723071 
L 316.022749 50.160214 
L 316.002912 50.597357 
L 315.9963 51.0345 
L 315.9963 66.3345 
L 315.9963 66.3345 
L 316.6443 65.74698 
L 317.2923 65.18394 
L 317.9403 64.64538 
L 318.5883 64.1313 
L 319.2363 63.6417 
L 319.8843 63.17658 
L 320.5323 62.73594 
L 321.1803 62.31978 
L 321.8283 61.9281 
L 322.4763 61.5609 
L 323.1243 61.21818 
L 323.7723 60.89994 
L 324.4203 60.60618 
L 325.0683 60.3369 
L 325.7163 60.0921 
L 326.3643 59.87178 
L 327.0123 59.67594 
L 327.6603 59.50458 
L 328.3083 59.3577 
L 328.9563 59.2353 
L 329.6043 59.13738 
L 330.2523 59.06394 
L 330.9003 59.01498 
L 331.5483 58.9905 
L 332.1963 58.9905 
L 332.8443 59.01498 
L 333.4923 59.06394 
L 334.1403 59.13738 
L 334.7883 59.2353 
L 335.4363 59.3577 
L 336.0843 59.50458 
L 336.7323 59.67594 
L 337.3803 59.87178 
L 338.0283 60.0921 
L 338.6763 60.3369 
L 339.3243 60.60618 
L 339.9723 60.89994 
L 340.6203 61.21818 
L 341.2683 61.5609 
L 341.9163 61.9281 
L 342.5643 62.31978 
L 343.2123 62.73594 
L 343.8603 63.17658 
L 344.5083 63.6417 
L 345.1563 64.1313 
L 345.8043 64.64538 
L 346.4523 65.18394 
L 347.1003 65.74698 
z
" clip-path="url(#p2ca19c645f)" style="fill: #add8e6; stroke: #add8e6; stroke-linejoin: miter"/>
   </g>
   <g id="line2d_19">
    <path d="M 347.7483 66.3345 
L 347.642504 49.285929 
L 347.325116 47.537357 
L 346.796137 45.788786 
L 346.055565 44.040214 
L 345.103402 42.291643 
L 343.939647 40.543071 
L 342.187402 38.357357 
L 340.104545 36.171643 
L 337.691076 33.985929 
L 334.946994 31.800214 
L 331.8723 29.6145 
L 331.8723 29.6145 
L 328.797606 31.800214 
L 326.053524 33.985929 
L 323.640055 36.171643 
L 321.557198 38.357357 
L 319.804953 40.543071 
L 318.38332 42.728786 
L 317.484055 44.477357 
L 316.796382 46.225929 
L 316.3203 47.9745 
L 316.05581 49.723071 
L 315.9963 51.0345 
L 315.9963 66.3345 
L 315.9963 66.3345 
L 318.5883 64.1313 
L 320.5323 62.73594 
L 322.4763 61.5609 
L 324.4203 60.60618 
L 326.3643 59.87178 
L 328.3083 59.3577 
L 330.2523 59.06394 
L 332.1963 58.9905 
L 334.1403 59.13738 
L 336.0843 59.50458 
L 338.0283 60.0921 
L 339.9723 60.89994 
L 341.9163 61.9281 
L 343.8603 63.17658 
L 345.8043 64.64538 
L 347.7483 66.3345 
L 347.7483 66.3345 
" clip-path="url(#p2ca19c645f)" style="fill: none; stroke: #000000; stroke-width: 2; stroke-linecap: round"/>
   </g>
   <g id="line2d_20">
    <path d="M 339.9723 77.0445 
L 339.9723 60.89994 
" clip-path="url(#p2ca19c645f)" style="fill: none; stroke: #000000; stroke-width: 2; stroke-linecap: round"/>
   </g>
   <g id="line2d_21">
    <path d="M 323.7723 77.0445 
L 323.7723 60.89994 
" clip-path="url(#p2ca19c645f)" style="fill: none; stroke: #000000; stroke-width: 2; stroke-linecap: round"/>
   </g>
   <g id="line2d_22">
    <path d="M 331.8723 77.0445 
M 331.8723 29.6145 
L 331.8723 18.9045 
" clip-path="url(#p2ca19c645f)" style="fill: none; stroke: #000000; stroke-width: 2; stroke-linecap: round"/>
   </g>
   <g id="line2d_23">
    <path d="M 226.5723 77.0445 
L 226.5723 93.8745 
L 226.5723 110.7045 
" clip-path="url(#p2ca19c645f)" style="fill: none; stroke: #000000; stroke-width: 2; stroke-linecap: round"/>
   </g>
   <g id="line2d_24">
    <path d="M 226.5723 110.7045 
" clip-path="url(#p2ca19c645f)" style="fill: none; stroke: #000000; stroke-width: 2; stroke-linecap: round"/>
   </g>
   <g id="line2d_25">
    <path d="M 242.7723 77.0445 
L 242.7723 116.0595 
L 242.7723 155.0745 
" clip-path="url(#p2ca19c645f)" style="fill: none; stroke: #000000; stroke-width: 2; stroke-linecap: round"/>
   </g>
   <g id="line2d_26">
    <path d="M 169.8723 155.0745 
L 206.3223 155.0745 
L 242.7723 155.0745 
" clip-path="url(#p2ca19c645f)" style="fill: none; stroke: #000000; stroke-width: 2; stroke-linecap: round"/>
   </g>
   <g id="line2d_27">
    <path d="M 323.7723 77.0445 
L 323.7723 93.8745 
L 323.7723 110.7045 
" clip-path="url(#p2ca19c645f)" style="fill: none; stroke: #000000; stroke-width: 2; stroke-linecap: round"/>
   </g>
   <g id="line2d_28">
    <path d="M 169.8723 110.7045 
L 246.8223 110.7045 
L 323.7723 110.7045 
" clip-path="url(#p2ca19c645f)" style="fill: none; stroke: #000000; stroke-width: 2; stroke-linecap: round"/>
   </g>
   <g id="line2d_29">
    <path d="M 339.9723 77.0445 
L 339.9723 134.4195 
L 339.9723 191.7945 
" clip-path="url(#p2ca19c645f)" style="fill: none; stroke: #000000; stroke-width: 2; stroke-linecap: round"/>
   </g>
   <g id="line2d_30">
    <path d="M 169.8723 191.7945 
L 254.9223 191.7945 
L 339.9723 191.7945 
" clip-path="url(#p2ca19c645f)" style="fill: none; stroke: #000000; stroke-width: 2; stroke-linecap: round"/>
   </g>
   <g id="text_1">
    <!-- 1 -->
    <g transform="translate(107.705425 101.292719)scale(0.07 -0.07)">
     <defs>
      <path id="DejaVuSans-31" d="M 794 531 
L 1825 531 
L 1825 4091 
L 703 3866 
L 703 4441 
L 1819 4666 
L 2450 4666 
L 2450 531 
L 3481 531 
L 3481 0 
L 794 0 
L 794 531 
z
" transform="scale(0.015625)"/>
     </defs>
     <use xlink:href="#DejaVuSans-31"/>
    </g>
   </g>
   <g id="text_2">
    <!-- 2 -->
    <g transform="translate(107.705425 116.592719)scale(0.07 -0.07)">
     <defs>
      <path id="DejaVuSans-32" d="M 1228 531 
L 3431 531 
L 3431 0 
L 469 0 
L 469 531 
Q 828 903 1448 1529 
Q 2069 2156 2228 2338 
Q 2531 2678 2651 2914 
Q 2772 3150 2772 3378 
Q 2772 3750 2511 3984 
Q 2250 4219 1831 4219 
Q 1534 4219 1204 4116 
Q 875 4013 500 3803 
L 500 4441 
Q 881 4594 1212 4672 
Q 1544 4750 1819 4750 
Q 2544 4750 2975 4387 
Q 3406 4025 3406 3419 
Q 3406 3131 3298 2873 
Q 3191 2616 2906 2266 
Q 2828 2175 2409 1742 
Q 1991 1309 1228 531 
z
" transform="scale(0.015625)"/>
     </defs>
     <use xlink:href="#DejaVuSans-32"/>
    </g>
   </g>
   <g id="text_3">
    <!-- C -->
    <g transform="translate(88.844331 81.782938)scale(0.14 -0.14)">
     <defs>
      <path id="DejaVuSans-43" d="M 4122 4306 
L 4122 3641 
Q 3803 3938 3442 4084 
Q 3081 4231 2675 4231 
Q 1875 4231 1450 3742 
Q 1025 3253 1025 2328 
Q 1025 1406 1450 917 
Q 1875 428 2675 428 
Q 3081 428 3442 575 
Q 3803 722 4122 1019 
L 4122 359 
Q 3791 134 3420 21 
Q 3050 -91 2638 -91 
Q 1578 -91 968 557 
Q 359 1206 359 2328 
Q 359 3453 968 4101 
Q 1578 4750 2638 4750 
Q 3056 4750 3426 4639 
Q 3797 4528 4122 4306 
z
" transform="scale(0.015625)"/>
     </defs>
     <use xlink:href="#DejaVuSans-43"/>
    </g>
   </g>
   <g id="text_4">
    <!-- B -->
    <g transform="translate(56.529644 81.782938)scale(0.14 -0.14)">
     <defs>
      <path id="DejaVuSans-42" d="M 1259 2228 
L 1259 519 
L 2272 519 
Q 2781 519 3026 730 
Q 3272 941 3272 1375 
Q 3272 1813 3026 2020 
Q 2781 2228 2272 2228 
L 1259 2228 
z
M 1259 4147 
L 1259 2741 
L 2194 2741 
Q 2656 2741 2882 2914 
Q 3109 3088 3109 3444 
Q 3109 3797 2882 3972 
Q 2656 4147 2194 4147 
L 1259 4147 
z
M 628 4666 
L 2241 4666 
Q 2963 4666 3353 4366 
Q 3744 4066 3744 3513 
Q 3744 3084 3544 2831 
Q 3344 2578 2956 2516 
Q 3422 2416 3680 2098 
Q 3938 1781 3938 1306 
Q 3938 681 3513 340 
Q 3088 0 2303 0 
L 628 0 
L 628 4666 
z
" transform="scale(0.015625)"/>
     </defs>
     <use xlink:href="#DejaVuSans-42"/>
    </g>
   </g>
   <g id="text_5">
    <!-- A -->
    <g transform="translate(24.143863 81.782938)scale(0.14 -0.14)">
     <defs>
      <path id="DejaVuSans-41" d="M 2188 4044 
L 1331 1722 
L 3047 1722 
L 2188 4044 
z
M 1831 4666 
L 2547 4666 
L 4325 0 
L 3669 0 
L 3244 1197 
L 1141 1197 
L 716 0 
L 50 0 
L 1831 4666 
z
" transform="scale(0.015625)"/>
     </defs>
     <use xlink:href="#DejaVuSans-41"/>
    </g>
   </g>
   <g id="text_6">
    <!-- F1 -->
    <g transform="translate(201.512612 22.767625)scale(0.14 -0.14)">
     <defs>
      <path id="DejaVuSans-46" d="M 628 4666 
L 3309 4666 
L 3309 4134 
L 1259 4134 
L 1259 2759 
L 3109 2759 
L 3109 2228 
L 1259 2228 
L 1259 0 
L 628 0 
L 628 4666 
z
" transform="scale(0.015625)"/>
     </defs>
     <use xlink:href="#DejaVuSans-46"/>
     <use xlink:href="#DejaVuSans-31" x="57.519531"/>
    </g>
   </g>
   <g id="text_7">
    <!-- F2 -->
    <g transform="translate(298.712612 22.767625)scale(0.14 -0.14)">
     <use xlink:href="#DejaVuSans-46"/>
     <use xlink:href="#DejaVuSans-32" x="57.519531"/>
    </g>
   </g>
   <g id="text_8">
    <!-- 2 -->
    <g transform="translate(242.7723 72.528719)scale(0.07 -0.07)">
     <use xlink:href="#DejaVuSans-32"/>
    </g>
   </g>
   <g id="text_9">
    <!-- 1 -->
    <g transform="translate(339.9723 72.528719)scale(0.07 -0.07)">
     <use xlink:href="#DejaVuSans-31"/>
    </g>
   </g>
  </g>
 </g>
 <defs>
  <clipPath id="p2ca19c645f">
   <rect x="7.2" y="7.2" width="359.8506" height="196.299"/>
  </clipPath>
 </defs>
</svg>
