<?xml version="1.0" encoding="utf-8" standalone="no"?>
<!DOCTYPE svg PUBLIC "-//W3C//DTD SVG 1.1//EN"
  "http://www.w3.org/Graphics/SVG/1.1/DTD/svg11.dtd">
<svg xmlns:xlink="http://www.w3.org/1999/xlink" width="374.2506pt" height="276.336pt" viewBox="0 0 374.2506 276.336" xmlns="http://www.w3.org/2000/svg" version="1.1">
 <metadata>
  <rdf:RDF xmlns:dc="http://purl.org/dc/elements/1.1/" xmlns:cc="http://creativecommons.org/ns#" xmlns:rdf="http://www.w3.org/1999/02/22-rdf-syntax-ns#">
   <cc:Work>
    <dc:type rdf:resource="http://purl.org/dc/dcmitype/StillImage"/>
    <dc:date>2023-03-12T00:05:48.995083</dc:date>
    <dc:format>image/svg+xml</dc:format>
    <dc:creator>
     <cc:Agent>
      <dc:title>Matplotlib v3.5.3, https://matplotlib.org/</dc:title>
     </cc:Agent>
    </dc:creator>
   </cc:Work>
  </rdf:RDF>
 </metadata>
 <defs>
  <style type="text/css">*{stroke-linejoin: round; stroke-linecap: butt}</style>
 </defs>
 <g id="figure_1">
  <g id="patch_1">
   <path d="M 0 276.336 
L 374.2506 276.336 
L 374.2506 0 
L 0 0 
z
" style="fill: #ffffff"/>
  </g>
  <g id="axes_1">
   <g id="patch_2">
    <path d="M 28.9323 108.333 
C 29.576744 108.333 30.194879 108.091184 30.650569 107.66081 
C 31.10626 107.230436 31.3623 106.646641 31.3623 106.038 
C 31.3623 105.429359 31.10626 104.845564 30.650569 104.41519 
C 30.194879 103.984816 29.576744 103.743 28.9323 103.743 
C 28.287856 103.743 27.669721 103.984816 27.214031 104.41519 
C 26.75834 104.845564 26.5023 105.429359 26.5023 106.038 
C 26.5023 106.646641 26.75834 107.230436 27.214031 107.66081 
C 27.669721 108.091184 28.287856 108.333 28.9323 108.333 
z
" clip-path="url(#pe27b0970c0)" style="stroke: #000000; stroke-width: 2; stroke-linejoin: miter"/>
   </g>
   <g id="patch_3">
    <path d="M 61.3323 123.633 
C 61.976744 123.633 62.594879 123.391184 63.050569 122.96081 
C 63.50626 122.530436 63.7623 121.946641 63.7623 121.338 
C 63.7623 120.729359 63.50626 120.145564 63.050569 119.71519 
C 62.594879 119.284816 61.976744 119.043 61.3323 119.043 
C 60.687856 119.043 60.069721 119.284816 59.614031 119.71519 
C 59.15834 120.145564 58.9023 120.729359 58.9023 121.338 
C 58.9023 121.946641 59.15834 122.530436 59.614031 122.96081 
C 60.069721 123.391184 60.687856 123.633 61.3323 123.633 
z
" clip-path="url(#pe27b0970c0)" style="stroke: #000000; stroke-width: 2; stroke-linejoin: miter"/>
   </g>
   <g id="patch_4">
    <path d="M 28.9323 160.353 
C 29.576744 160.353 30.194879 160.111184 30.650569 159.68081 
C 31.10626 159.250436 31.3623 158.666641 31.3623 158.058 
C 31.3623 157.449359 31.10626 156.865564 30.650569 156.43519 
C 30.194879 156.004816 29.576744 155.763 28.9323 155.763 
C 28.287856 155.763 27.669721 156.004816 27.214031 156.43519 
C 26.75834 156.865564 26.5023 157.449359 26.5023 158.058 
C 26.5023 158.666641 26.75834 159.250436 27.214031 159.68081 
C 27.669721 160.111184 28.287856 160.353 28.9323 160.353 
z
" clip-path="url(#pe27b0970c0)" style="stroke: #000000; stroke-width: 2; stroke-linejoin: miter"/>
   </g>
   <g id="patch_5">
    <path d="M 142.3323 128.988 
L 143.370238 128.956565 
L 144.40391 128.862387 
L 145.42907 128.705855 
L 146.441504 128.487611 
L 147.437053 128.208553 
L 148.411625 127.869826 
L 149.361217 127.472824 
L 150.281924 127.019176 
L 151.169965 126.510748 
L 152.021691 125.949628 
L 152.8336 125.338123 
L 153.602357 124.678745 
L 154.324804 123.974204 
L 154.99797 123.227394 
L 155.619091 122.441385 
L 156.185613 121.619406 
L 156.695209 120.764836 
L 157.145784 119.881185 
L 157.535488 118.972085 
L 157.862719 118.041272 
L 158.126132 117.09257 
L 158.324645 116.129878 
L 158.457442 115.157152 
L 158.523977 114.178389 
L 158.523977 113.197611 
L 158.457442 112.218848 
L 158.324645 111.246122 
L 158.126132 110.28343 
L 157.862719 109.334728 
L 157.535488 108.403915 
L 157.145784 107.494815 
L 156.695209 106.611164 
L 156.185613 105.756594 
L 155.619091 104.934615 
L 154.99797 104.148606 
L 154.324804 103.401796 
L 153.602357 102.697255 
L 152.8336 102.037877 
L 152.021691 101.426372 
L 151.169965 100.865252 
L 150.281924 100.356824 
L 149.361217 99.903176 
L 148.411625 99.506174 
L 147.437053 99.167447 
L 146.441504 98.888389 
L 145.42907 98.670145 
L 144.40391 98.513613 
L 143.370238 98.419435 
L 142.3323 98.388 
L 121.2723 98.388 
L 121.2723 113.688 
L 121.2723 128.988 
z
" clip-path="url(#pe27b0970c0)" style="fill: #7dbfc5; stroke: #7dbfc5; stroke-linejoin: miter"/>
   </g>
   <g id="line2d_1">
    <path d="M 142.3323 128.988 
L 143.370238 128.956565 
L 144.40391 128.862387 
L 145.42907 128.705855 
L 146.441504 128.487611 
L 147.437053 128.208553 
L 148.411625 127.869826 
L 149.361217 127.472824 
L 150.281924 127.019176 
L 151.169965 126.510748 
L 152.021691 125.949628 
L 152.8336 125.338123 
L 153.602357 124.678745 
L 154.324804 123.974204 
L 154.99797 123.227394 
L 155.619091 122.441385 
L 156.185613 121.619406 
L 156.695209 120.764836 
L 157.145784 119.881185 
L 157.535488 118.972085 
L 157.862719 118.041272 
L 158.126132 117.09257 
L 158.324645 116.129878 
L 158.457442 115.157152 
L 158.523977 114.178389 
L 158.523977 113.197611 
L 158.457442 112.218848 
L 158.324645 111.246122 
L 158.126132 110.28343 
L 157.862719 109.334728 
L 157.535488 108.403915 
L 157.145784 107.494815 
L 156.695209 106.611164 
L 156.185613 105.756594 
L 155.619091 104.934615 
L 154.99797 104.148606 
L 154.324804 103.401796 
L 153.602357 102.697255 
L 152.8336 102.037877 
L 152.021691 101.426372 
L 151.169965 100.865252 
L 150.281924 100.356824 
L 149.361217 99.903176 
L 148.411625 99.506174 
L 147.437053 99.167447 
L 146.441504 98.888389 
L 145.42907 98.670145 
L 144.40391 98.513613 
L 143.370238 98.419435 
L 142.3323 98.388 
L 121.2723 98.388 
L 121.2723 113.688 
L 121.2723 128.988 
L 142.3323 128.988 
" clip-path="url(#pe27b0970c0)" style="fill: none; stroke: #000000; stroke-width: 2; stroke-linecap: round"/>
   </g>
   <g id="line2d_2">
    <path d="M 109.9323 121.338 
L 121.2723 121.338 
" clip-path="url(#pe27b0970c0)" style="fill: none; stroke: #000000; stroke-width: 2; stroke-linecap: round"/>
   </g>
   <g id="line2d_3">
    <path d="M 109.9323 106.038 
L 121.2723 106.038 
" clip-path="url(#pe27b0970c0)" style="fill: none; stroke: #000000; stroke-width: 2; stroke-linecap: round"/>
   </g>
   <g id="line2d_4">
    <path d="M 109.9323 113.688 
M 158.5323 113.688 
L 169.8723 113.688 
" clip-path="url(#pe27b0970c0)" style="fill: none; stroke: #000000; stroke-width: 2; stroke-linecap: round"/>
   </g>
   <g id="line2d_5">
    <path d="M 109.9323 158.058 
L 139.9023 158.058 
L 169.8723 158.058 
" clip-path="url(#pe27b0970c0)" style="fill: none; stroke: #000000; stroke-width: 2; stroke-linecap: round"/>
   </g>
   <g id="line2d_6">
    <path d="M 109.9323 194.778 
L 139.9023 194.778 
L 169.8723 194.778 
" clip-path="url(#pe27b0970c0)" style="fill: none; stroke: #000000; stroke-width: 2; stroke-linecap: round"/>
   </g>
   <g id="patch_6">
    <path d="M 142.3323 254.448 
L 143.370238 254.416565 
L 144.40391 254.322387 
L 145.42907 254.165855 
L 146.441504 253.947611 
L 147.437053 253.668553 
L 148.411625 253.329826 
L 149.361217 252.932824 
L 150.281924 252.479176 
L 151.169965 251.970748 
L 152.021691 251.409628 
L 152.8336 250.798123 
L 153.602357 250.138745 
L 154.324804 249.434204 
L 154.99797 248.687394 
L 155.619091 247.901385 
L 156.185613 247.079406 
L 156.695209 246.224836 
L 157.145784 245.341185 
L 157.535488 244.432085 
L 157.862719 243.501272 
L 158.126132 242.55257 
L 158.324645 241.589878 
L 158.457442 240.617152 
L 158.523977 239.638389 
L 158.523977 238.657611 
L 158.457442 237.678848 
L 158.324645 236.706122 
L 158.126132 235.74343 
L 157.862719 234.794728 
L 157.535488 233.863915 
L 157.145784 232.954815 
L 156.695209 232.071164 
L 156.185613 231.216594 
L 155.619091 230.394615 
L 154.99797 229.608606 
L 154.324804 228.861796 
L 153.602357 228.157255 
L 152.8336 227.497877 
L 152.021691 226.886372 
L 151.169965 226.325252 
L 150.281924 225.816824 
L 149.361217 225.363176 
L 148.411625 224.966174 
L 147.437053 224.627447 
L 146.441504 224.348389 
L 145.42907 224.130145 
L 144.40391 223.973613 
L 143.370238 223.879435 
L 142.3323 223.848 
L 121.2723 223.848 
L 121.2723 239.148 
L 121.2723 254.448 
z
" clip-path="url(#pe27b0970c0)" style="fill: #7dbfc5; stroke: #7dbfc5; stroke-linejoin: miter"/>
   </g>
   <g id="line2d_7">
    <path d="M 142.3323 254.448 
L 143.370238 254.416565 
L 144.40391 254.322387 
L 145.42907 254.165855 
L 146.441504 253.947611 
L 147.437053 253.668553 
L 148.411625 253.329826 
L 149.361217 252.932824 
L 150.281924 252.479176 
L 151.169965 251.970748 
L 152.021691 251.409628 
L 152.8336 250.798123 
L 153.602357 250.138745 
L 154.324804 249.434204 
L 154.99797 248.687394 
L 155.619091 247.901385 
L 156.185613 247.079406 
L 156.695209 246.224836 
L 157.145784 245.341185 
L 157.535488 244.432085 
L 157.862719 243.501272 
L 158.126132 242.55257 
L 158.324645 241.589878 
L 158.457442 240.617152 
L 158.523977 239.638389 
L 158.523977 238.657611 
L 158.457442 237.678848 
L 158.324645 236.706122 
L 158.126132 235.74343 
L 157.862719 234.794728 
L 157.535488 233.863915 
L 157.145784 232.954815 
L 156.695209 232.071164 
L 156.185613 231.216594 
L 155.619091 230.394615 
L 154.99797 229.608606 
L 154.324804 228.861796 
L 153.602357 228.157255 
L 152.8336 227.497877 
L 152.021691 226.886372 
L 151.169965 226.325252 
L 150.281924 225.816824 
L 149.361217 225.363176 
L 148.411625 224.966174 
L 147.437053 224.627447 
L 146.441504 224.348389 
L 145.42907 224.130145 
L 144.40391 223.973613 
L 143.370238 223.879435 
L 142.3323 223.848 
L 121.2723 223.848 
L 121.2723 239.148 
L 121.2723 254.448 
L 142.3323 254.448 
" clip-path="url(#pe27b0970c0)" style="fill: none; stroke: #000000; stroke-width: 2; stroke-linecap: round"/>
   </g>
   <g id="line2d_8">
    <path d="M 109.9323 246.798 
L 121.2723 246.798 
" clip-path="url(#pe27b0970c0)" style="fill: none; stroke: #000000; stroke-width: 2; stroke-linecap: round"/>
   </g>
   <g id="line2d_9">
    <path d="M 109.9323 231.498 
L 121.2723 231.498 
" clip-path="url(#pe27b0970c0)" style="fill: none; stroke: #000000; stroke-width: 2; stroke-linecap: round"/>
   </g>
   <g id="line2d_10">
    <path d="M 109.9323 239.148 
M 158.5323 239.148 
L 169.8723 239.148 
" clip-path="url(#pe27b0970c0)" style="fill: none; stroke: #000000; stroke-width: 2; stroke-linecap: round"/>
   </g>
   <g id="line2d_11">
    <path d="M 93.7323 90.738 
L 93.7323 168.768 
L 93.7323 246.798 
" clip-path="url(#pe27b0970c0)" style="fill: none; stroke: #000000; stroke-width: 2; stroke-linecap: round"/>
   </g>
   <g id="line2d_12">
    <path d="M 61.3323 90.738 
L 61.3323 161.118 
L 61.3323 231.498 
" clip-path="url(#pe27b0970c0)" style="fill: none; stroke: #000000; stroke-width: 2; stroke-linecap: round"/>
   </g>
   <g id="line2d_13">
    <path d="M 28.9323 90.738 
L 28.9323 142.758 
L 28.9323 194.778 
" clip-path="url(#pe27b0970c0)" style="fill: none; stroke: #000000; stroke-width: 2; stroke-linecap: round"/>
   </g>
   <g id="line2d_14">
    <path d="M 109.9323 106.038 
L 69.4323 106.038 
L 28.9323 106.038 
" clip-path="url(#pe27b0970c0)" style="fill: none; stroke: #000000; stroke-width: 2; stroke-linecap: round"/>
   </g>
   <g id="line2d_15">
    <path d="M 28.9323 106.038 
" clip-path="url(#pe27b0970c0)" style="fill: none; stroke: #000000; stroke-width: 2; stroke-linecap: round"/>
   </g>
   <g id="line2d_16">
    <path d="M 109.9323 121.338 
L 85.6323 121.338 
L 61.3323 121.338 
" clip-path="url(#pe27b0970c0)" style="fill: none; stroke: #000000; stroke-width: 2; stroke-linecap: round"/>
   </g>
   <g id="line2d_17">
    <path d="M 61.3323 121.338 
" clip-path="url(#pe27b0970c0)" style="fill: none; stroke: #000000; stroke-width: 2; stroke-linecap: round"/>
   </g>
   <g id="line2d_18">
    <path d="M 109.9323 158.058 
L 69.4323 158.058 
L 28.9323 158.058 
" clip-path="url(#pe27b0970c0)" style="fill: none; stroke: #000000; stroke-width: 2; stroke-linecap: round"/>
   </g>
   <g id="line2d_19">
    <path d="M 28.9323 158.058 
" clip-path="url(#pe27b0970c0)" style="fill: none; stroke: #000000; stroke-width: 2; stroke-linecap: round"/>
   </g>
   <g id="line2d_20">
    <path d="M 109.9323 194.778 
L 69.4323 194.778 
L 28.9323 194.778 
" clip-path="url(#pe27b0970c0)" style="fill: none; stroke: #000000; stroke-width: 2; stroke-linecap: round"/>
   </g>
   <g id="line2d_21">
    <path d="M 109.9323 231.498 
L 85.6323 231.498 
L 61.3323 231.498 
" clip-path="url(#pe27b0970c0)" style="fill: none; stroke: #000000; stroke-width: 2; stroke-linecap: round"/>
   </g>
   <g id="line2d_22">
    <path d="M 109.9323 246.798 
L 101.8323 246.798 
L 93.7323 246.798 
" clip-path="url(#pe27b0970c0)" style="fill: none; stroke: #000000; stroke-width: 2; stroke-linecap: round"/>
   </g>
   <g id="patch_7">
    <path d="M 250.5483 69.318 
L 250.5483 54.018 
L 250.541688 53.580857 
L 250.521851 53.143714 
L 250.48879 52.706571 
L 250.442504 52.269429 
L 250.382994 51.832286 
L 250.310259 51.395143 
L 250.2243 50.958 
L 250.125116 50.520857 
L 250.012708 50.083714 
L 249.887076 49.646571 
L 249.748218 49.209429 
L 249.596137 48.772286 
L 249.430831 48.335143 
L 249.2523 47.898 
L 249.060545 47.460857 
L 248.855565 47.023714 
L 248.637361 46.586571 
L 248.405933 46.149429 
L 248.16128 45.712286 
L 247.903402 45.275143 
L 247.6323 44.838 
L 247.347973 44.400857 
L 247.050422 43.963714 
L 246.739647 43.526571 
L 246.415647 43.089429 
L 246.078422 42.652286 
L 245.727973 42.215143 
L 245.3643 41.778 
L 244.987402 41.340857 
L 244.59728 40.903714 
L 244.193933 40.466571 
L 243.777361 40.029429 
L 243.347565 39.592286 
L 242.904545 39.155143 
L 242.4483 38.718 
L 241.978831 38.280857 
L 241.496137 37.843714 
L 241.000218 37.406571 
L 240.491076 36.969429 
L 239.968708 36.532286 
L 239.433116 36.095143 
L 238.8843 35.658 
L 238.322259 35.220857 
L 237.746994 34.783714 
L 237.158504 34.346571 
L 236.55679 33.909429 
L 235.941851 33.472286 
L 235.313688 33.035143 
L 234.6723 32.598 
L 234.6723 32.598 
L 234.030912 33.035143 
L 233.402749 33.472286 
L 232.78781 33.909429 
L 232.186096 34.346571 
L 231.597606 34.783714 
L 231.022341 35.220857 
L 230.4603 35.658 
L 229.911484 36.095143 
L 229.375892 36.532286 
L 228.853524 36.969429 
L 228.344382 37.406571 
L 227.848463 37.843714 
L 227.365769 38.280857 
L 226.8963 38.718 
L 226.440055 39.155143 
L 225.997035 39.592286 
L 225.567239 40.029429 
L 225.150667 40.466571 
L 224.74732 40.903714 
L 224.357198 41.340857 
L 223.9803 41.778 
L 223.616627 42.215143 
L 223.266178 42.652286 
L 222.928953 43.089429 
L 222.604953 43.526571 
L 222.294178 43.963714 
L 221.996627 44.400857 
L 221.7123 44.838 
L 221.441198 45.275143 
L 221.18332 45.712286 
L 220.938667 46.149429 
L 220.707239 46.586571 
L 220.489035 47.023714 
L 220.284055 47.460857 
L 220.0923 47.898 
L 219.913769 48.335143 
L 219.748463 48.772286 
L 219.596382 49.209429 
L 219.457524 49.646571 
L 219.331892 50.083714 
L 219.219484 50.520857 
L 219.1203 50.958 
L 219.034341 51.395143 
L 218.961606 51.832286 
L 218.902096 52.269429 
L 218.85581 52.706571 
L 218.822749 53.143714 
L 218.802912 53.580857 
L 218.7963 54.018 
L 218.7963 69.318 
L 218.7963 69.318 
L 219.4443 68.73048 
L 220.0923 68.16744 
L 220.7403 67.62888 
L 221.3883 67.1148 
L 222.0363 66.6252 
L 222.6843 66.16008 
L 223.3323 65.71944 
L 223.9803 65.30328 
L 224.6283 64.9116 
L 225.2763 64.5444 
L 225.9243 64.20168 
L 226.5723 63.88344 
L 227.2203 63.58968 
L 227.8683 63.3204 
L 228.5163 63.0756 
L 229.1643 62.85528 
L 229.8123 62.65944 
L 230.4603 62.48808 
L 231.1083 62.3412 
L 231.7563 62.2188 
L 232.4043 62.12088 
L 233.0523 62.04744 
L 233.7003 61.99848 
L 234.3483 61.974 
L 234.9963 61.974 
L 235.6443 61.99848 
L 236.2923 62.04744 
L 236.9403 62.12088 
L 237.5883 62.2188 
L 238.2363 62.3412 
L 238.8843 62.48808 
L 239.5323 62.65944 
L 240.1803 62.85528 
L 240.8283 63.0756 
L 241.4763 63.3204 
L 242.1243 63.58968 
L 242.7723 63.88344 
L 243.4203 64.20168 
L 244.0683 64.5444 
L 244.7163 64.9116 
L 245.3643 65.30328 
L 246.0123 65.71944 
L 246.6603 66.16008 
L 247.3083 66.6252 
L 247.9563 67.1148 
L 248.6043 67.62888 
L 249.2523 68.16744 
L 249.9003 68.73048 
z
" clip-path="url(#pe27b0970c0)" style="fill: #f17bd0; stroke: #f17bd0; stroke-linejoin: miter"/>
   </g>
   <g id="line2d_23">
    <path d="M 250.5483 69.318 
L 250.442504 52.269429 
L 250.125116 50.520857 
L 249.596137 48.772286 
L 248.855565 47.023714 
L 247.903402 45.275143 
L 246.739647 43.526571 
L 244.987402 41.340857 
L 242.904545 39.155143 
L 240.491076 36.969429 
L 237.746994 34.783714 
L 234.6723 32.598 
L 234.6723 32.598 
L 231.597606 34.783714 
L 228.853524 36.969429 
L 226.440055 39.155143 
L 224.357198 41.340857 
L 222.604953 43.526571 
L 221.18332 45.712286 
L 220.284055 47.460857 
L 219.596382 49.209429 
L 219.1203 50.958 
L 218.85581 52.706571 
L 218.7963 54.018 
L 218.7963 69.318 
L 218.7963 69.318 
L 221.3883 67.1148 
L 223.3323 65.71944 
L 225.2763 64.5444 
L 227.2203 63.58968 
L 229.1643 62.85528 
L 231.1083 62.3412 
L 233.0523 62.04744 
L 234.9963 61.974 
L 236.9403 62.12088 
L 238.8843 62.48808 
L 240.8283 63.0756 
L 242.7723 63.88344 
L 244.7163 64.9116 
L 246.6603 66.16008 
L 248.6043 67.62888 
L 250.5483 69.318 
L 250.5483 69.318 
" clip-path="url(#pe27b0970c0)" style="fill: none; stroke: #000000; stroke-width: 2; stroke-linecap: round"/>
   </g>
   <g id="line2d_24">
    <path d="M 242.7723 80.028 
L 242.7723 63.88344 
" clip-path="url(#pe27b0970c0)" style="fill: none; stroke: #000000; stroke-width: 2; stroke-linecap: round"/>
   </g>
   <g id="line2d_25">
    <path d="M 226.5723 80.028 
L 226.5723 63.88344 
" clip-path="url(#pe27b0970c0)" style="fill: none; stroke: #000000; stroke-width: 2; stroke-linecap: round"/>
   </g>
   <g id="line2d_26">
    <path d="M 234.6723 80.028 
M 234.6723 32.598 
L 234.6723 21.888 
" clip-path="url(#pe27b0970c0)" style="fill: none; stroke: #000000; stroke-width: 2; stroke-linecap: round"/>
   </g>
   <g id="patch_8">
    <path d="M 347.7483 69.318 
L 347.7483 54.018 
L 347.741688 53.580857 
L 347.721851 53.143714 
L 347.68879 52.706571 
L 347.642504 52.269429 
L 347.582994 51.832286 
L 347.510259 51.395143 
L 347.4243 50.958 
L 347.325116 50.520857 
L 347.212708 50.083714 
L 347.087076 49.646571 
L 346.948218 49.209429 
L 346.796137 48.772286 
L 346.630831 48.335143 
L 346.4523 47.898 
L 346.260545 47.460857 
L 346.055565 47.023714 
L 345.837361 46.586571 
L 345.605933 46.149429 
L 345.36128 45.712286 
L 345.103402 45.275143 
L 344.8323 44.838 
L 344.547973 44.400857 
L 344.250422 43.963714 
L 343.939647 43.526571 
L 343.615647 43.089429 
L 343.278422 42.652286 
L 342.927973 42.215143 
L 342.5643 41.778 
L 342.187402 41.340857 
L 341.79728 40.903714 
L 341.393933 40.466571 
L 340.977361 40.029429 
L 340.547565 39.592286 
L 340.104545 39.155143 
L 339.6483 38.718 
L 339.178831 38.280857 
L 338.696137 37.843714 
L 338.200218 37.406571 
L 337.691076 36.969429 
L 337.168708 36.532286 
L 336.633116 36.095143 
L 336.0843 35.658 
L 335.522259 35.220857 
L 334.946994 34.783714 
L 334.358504 34.346571 
L 333.75679 33.909429 
L 333.141851 33.472286 
L 332.513688 33.035143 
L 331.8723 32.598 
L 331.8723 32.598 
L 331.230912 33.035143 
L 330.602749 33.472286 
L 329.98781 33.909429 
L 329.386096 34.346571 
L 328.797606 34.783714 
L 328.222341 35.220857 
L 327.6603 35.658 
L 327.111484 36.095143 
L 326.575892 36.532286 
L 326.053524 36.969429 
L 325.544382 37.406571 
L 325.048463 37.843714 
L 324.565769 38.280857 
L 324.0963 38.718 
L 323.640055 39.155143 
L 323.197035 39.592286 
L 322.767239 40.029429 
L 322.350667 40.466571 
L 321.94732 40.903714 
L 321.557198 41.340857 
L 321.1803 41.778 
L 320.816627 42.215143 
L 320.466178 42.652286 
L 320.128953 43.089429 
L 319.804953 43.526571 
L 319.494178 43.963714 
L 319.196627 44.400857 
L 318.9123 44.838 
L 318.641198 45.275143 
L 318.38332 45.712286 
L 318.138667 46.149429 
L 317.907239 46.586571 
L 317.689035 47.023714 
L 317.484055 47.460857 
L 317.2923 47.898 
L 317.113769 48.335143 
L 316.948463 48.772286 
L 316.796382 49.209429 
L 316.657524 49.646571 
L 316.531892 50.083714 
L 316.419484 50.520857 
L 316.3203 50.958 
L 316.234341 51.395143 
L 316.161606 51.832286 
L 316.102096 52.269429 
L 316.05581 52.706571 
L 316.022749 53.143714 
L 316.002912 53.580857 
L 315.9963 54.018 
L 315.9963 69.318 
L 315.9963 69.318 
L 316.6443 68.73048 
L 317.2923 68.16744 
L 317.9403 67.62888 
L 318.5883 67.1148 
L 319.2363 66.6252 
L 319.8843 66.16008 
L 320.5323 65.71944 
L 321.1803 65.30328 
L 321.8283 64.9116 
L 322.4763 64.5444 
L 323.1243 64.20168 
L 323.7723 63.88344 
L 324.4203 63.58968 
L 325.0683 63.3204 
L 325.7163 63.0756 
L 326.3643 62.85528 
L 327.0123 62.65944 
L 327.6603 62.48808 
L 328.3083 62.3412 
L 328.9563 62.2188 
L 329.6043 62.12088 
L 330.2523 62.04744 
L 330.9003 61.99848 
L 331.5483 61.974 
L 332.1963 61.974 
L 332.8443 61.99848 
L 333.4923 62.04744 
L 334.1403 62.12088 
L 334.7883 62.2188 
L 335.4363 62.3412 
L 336.0843 62.48808 
L 336.7323 62.65944 
L 337.3803 62.85528 
L 338.0283 63.0756 
L 338.6763 63.3204 
L 339.3243 63.58968 
L 339.9723 63.88344 
L 340.6203 64.20168 
L 341.2683 64.5444 
L 341.9163 64.9116 
L 342.5643 65.30328 
L 343.2123 65.71944 
L 343.8603 66.16008 
L 344.5083 66.6252 
L 345.1563 67.1148 
L 345.8043 67.62888 
L 346.4523 68.16744 
L 347.1003 68.73048 
z
" clip-path="url(#pe27b0970c0)" style="fill: #f17bd0; stroke: #f17bd0; stroke-linejoin: miter"/>
   </g>
   <g id="line2d_27">
    <path d="M 347.7483 69.318 
L 347.642504 52.269429 
L 347.325116 50.520857 
L 346.796137 48.772286 
L 346.055565 47.023714 
L 345.103402 45.275143 
L 343.939647 43.526571 
L 342.187402 41.340857 
L 340.104545 39.155143 
L 337.691076 36.969429 
L 334.946994 34.783714 
L 331.8723 32.598 
L 331.8723 32.598 
L 328.797606 34.783714 
L 326.053524 36.969429 
L 323.640055 39.155143 
L 321.557198 41.340857 
L 319.804953 43.526571 
L 318.38332 45.712286 
L 317.484055 47.460857 
L 316.796382 49.209429 
L 316.3203 50.958 
L 316.05581 52.706571 
L 315.9963 54.018 
L 315.9963 69.318 
L 315.9963 69.318 
L 318.5883 67.1148 
L 320.5323 65.71944 
L 322.4763 64.5444 
L 324.4203 63.58968 
L 326.3643 62.85528 
L 328.3083 62.3412 
L 330.2523 62.04744 
L 332.1963 61.974 
L 334.1403 62.12088 
L 336.0843 62.48808 
L 338.0283 63.0756 
L 339.9723 63.88344 
L 341.9163 64.9116 
L 343.8603 66.16008 
L 345.8043 67.62888 
L 347.7483 69.318 
L 347.7483 69.318 
" clip-path="url(#pe27b0970c0)" style="fill: none; stroke: #000000; stroke-width: 2; stroke-linecap: round"/>
   </g>
   <g id="line2d_28">
    <path d="M 339.9723 80.028 
L 339.9723 63.88344 
" clip-path="url(#pe27b0970c0)" style="fill: none; stroke: #000000; stroke-width: 2; stroke-linecap: round"/>
   </g>
   <g id="line2d_29">
    <path d="M 323.7723 80.028 
L 323.7723 63.88344 
" clip-path="url(#pe27b0970c0)" style="fill: none; stroke: #000000; stroke-width: 2; stroke-linecap: round"/>
   </g>
   <g id="line2d_30">
    <path d="M 331.8723 80.028 
M 331.8723 32.598 
L 331.8723 21.888 
" clip-path="url(#pe27b0970c0)" style="fill: none; stroke: #000000; stroke-width: 2; stroke-linecap: round"/>
   </g>
   <g id="line2d_31">
    <path d="M 226.5723 80.028 
L 226.5723 96.858 
L 226.5723 113.688 
" clip-path="url(#pe27b0970c0)" style="fill: none; stroke: #000000; stroke-width: 2; stroke-linecap: round"/>
   </g>
   <g id="line2d_32">
    <path d="M 169.8723 113.688 
L 198.2223 113.688 
L 226.5723 113.688 
" clip-path="url(#pe27b0970c0)" style="fill: none; stroke: #000000; stroke-width: 2; stroke-linecap: round"/>
   </g>
   <g id="line2d_33">
    <path d="M 242.7723 80.028 
L 242.7723 119.043 
L 242.7723 158.058 
" clip-path="url(#pe27b0970c0)" style="fill: none; stroke: #000000; stroke-width: 2; stroke-linecap: round"/>
   </g>
   <g id="line2d_34">
    <path d="M 169.8723 158.058 
L 206.3223 158.058 
L 242.7723 158.058 
" clip-path="url(#pe27b0970c0)" style="fill: none; stroke: #000000; stroke-width: 2; stroke-linecap: round"/>
   </g>
   <g id="line2d_35">
    <path d="M 323.7723 80.028 
L 323.7723 137.403 
L 323.7723 194.778 
" clip-path="url(#pe27b0970c0)" style="fill: none; stroke: #000000; stroke-width: 2; stroke-linecap: round"/>
   </g>
   <g id="line2d_36">
    <path d="M 169.8723 194.778 
L 246.8223 194.778 
L 323.7723 194.778 
" clip-path="url(#pe27b0970c0)" style="fill: none; stroke: #000000; stroke-width: 2; stroke-linecap: round"/>
   </g>
   <g id="line2d_37">
    <path d="M 339.9723 80.028 
L 339.9723 159.588 
L 339.9723 239.148 
" clip-path="url(#pe27b0970c0)" style="fill: none; stroke: #000000; stroke-width: 2; stroke-linecap: round"/>
   </g>
   <g id="line2d_38">
    <path d="M 169.8723 239.148 
L 254.9223 239.148 
L 339.9723 239.148 
" clip-path="url(#pe27b0970c0)" style="fill: none; stroke: #000000; stroke-width: 2; stroke-linecap: round"/>
   </g>
   <g id="text_1">
    <!-- 1 -->
    <g transform="translate(107.705425 104.276219)scale(0.07 -0.07)">
     <defs>
      <path id="DejaVuSans-31" d="M 794 531 
L 1825 531 
L 1825 4091 
L 703 3866 
L 703 4441 
L 1819 4666 
L 2450 4666 
L 2450 531 
L 3481 531 
L 3481 0 
L 794 0 
L 794 531 
z
" transform="scale(0.015625)"/>
     </defs>
     <use xlink:href="#DejaVuSans-31"/>
    </g>
   </g>
   <g id="text_2">
    <!-- 2 -->
    <g transform="translate(107.705425 119.576219)scale(0.07 -0.07)">
     <defs>
      <path id="DejaVuSans-32" d="M 1228 531 
L 3431 531 
L 3431 0 
L 469 0 
L 469 531 
Q 828 903 1448 1529 
Q 2069 2156 2228 2338 
Q 2531 2678 2651 2914 
Q 2772 3150 2772 3378 
Q 2772 3750 2511 3984 
Q 2250 4219 1831 4219 
Q 1534 4219 1204 4116 
Q 875 4013 500 3803 
L 500 4441 
Q 881 4594 1212 4672 
Q 1544 4750 1819 4750 
Q 2544 4750 2975 4387 
Q 3406 4025 3406 3419 
Q 3406 3131 3298 2873 
Q 3191 2616 2906 2266 
Q 2828 2175 2409 1742 
Q 1991 1309 1228 531 
z
" transform="scale(0.015625)"/>
     </defs>
     <use xlink:href="#DejaVuSans-32"/>
    </g>
   </g>
   <g id="text_3">
    <!-- 2 -->
    <g transform="translate(107.705425 229.736219)scale(0.07 -0.07)">
     <use xlink:href="#DejaVuSans-32"/>
    </g>
   </g>
   <g id="text_4">
    <!-- 1 -->
    <g transform="translate(107.705425 245.036219)scale(0.07 -0.07)">
     <use xlink:href="#DejaVuSans-31"/>
    </g>
   </g>
   <g id="text_5">
    <!-- C -->
    <g transform="translate(88.844331 84.766437)scale(0.14 -0.14)">
     <defs>
      <path id="DejaVuSans-43" d="M 4122 4306 
L 4122 3641 
Q 3803 3938 3442 4084 
Q 3081 4231 2675 4231 
Q 1875 4231 1450 3742 
Q 1025 3253 1025 2328 
Q 1025 1406 1450 917 
Q 1875 428 2675 428 
Q 3081 428 3442 575 
Q 3803 722 4122 1019 
L 4122 359 
Q 3791 134 3420 21 
Q 3050 -91 2638 -91 
Q 1578 -91 968 557 
Q 359 1206 359 2328 
Q 359 3453 968 4101 
Q 1578 4750 2638 4750 
Q 3056 4750 3426 4639 
Q 3797 4528 4122 4306 
z
" transform="scale(0.015625)"/>
     </defs>
     <use xlink:href="#DejaVuSans-43"/>
    </g>
   </g>
   <g id="text_6">
    <!-- B -->
    <g transform="translate(56.529644 84.766437)scale(0.14 -0.14)">
     <defs>
      <path id="DejaVuSans-42" d="M 1259 2228 
L 1259 519 
L 2272 519 
Q 2781 519 3026 730 
Q 3272 941 3272 1375 
Q 3272 1813 3026 2020 
Q 2781 2228 2272 2228 
L 1259 2228 
z
M 1259 4147 
L 1259 2741 
L 2194 2741 
Q 2656 2741 2882 2914 
Q 3109 3088 3109 3444 
Q 3109 3797 2882 3972 
Q 2656 4147 2194 4147 
L 1259 4147 
z
M 628 4666 
L 2241 4666 
Q 2963 4666 3353 4366 
Q 3744 4066 3744 3513 
Q 3744 3084 3544 2831 
Q 3344 2578 2956 2516 
Q 3422 2416 3680 2098 
Q 3938 1781 3938 1306 
Q 3938 681 3513 340 
Q 3088 0 2303 0 
L 628 0 
L 628 4666 
z
" transform="scale(0.015625)"/>
     </defs>
     <use xlink:href="#DejaVuSans-42"/>
    </g>
   </g>
   <g id="text_7">
    <!-- A -->
    <g transform="translate(24.143863 84.766437)scale(0.14 -0.14)">
     <defs>
      <path id="DejaVuSans-41" d="M 2188 4044 
L 1331 1722 
L 3047 1722 
L 2188 4044 
z
M 1831 4666 
L 2547 4666 
L 4325 0 
L 3669 0 
L 3244 1197 
L 1141 1197 
L 716 0 
L 50 0 
L 1831 4666 
z
" transform="scale(0.015625)"/>
     </defs>
     <use xlink:href="#DejaVuSans-41"/>
    </g>
   </g>
   <g id="text_8">
    <!-- F1 -->
    <g transform="translate(201.512612 25.751125)scale(0.14 -0.14)">
     <defs>
      <path id="DejaVuSans-46" d="M 628 4666 
L 3309 4666 
L 3309 4134 
L 1259 4134 
L 1259 2759 
L 3109 2759 
L 3109 2228 
L 1259 2228 
L 1259 0 
L 628 0 
L 628 4666 
z
" transform="scale(0.015625)"/>
     </defs>
     <use xlink:href="#DejaVuSans-46"/>
     <use xlink:href="#DejaVuSans-31" x="57.519531"/>
    </g>
   </g>
   <g id="text_9">
    <!-- F2 -->
    <g transform="translate(298.712612 25.751125)scale(0.14 -0.14)">
     <use xlink:href="#DejaVuSans-46"/>
     <use xlink:href="#DejaVuSans-32" x="57.519531"/>
    </g>
   </g>
   <g id="text_10">
    <!-- 2 -->
    <g transform="translate(242.7723 75.512219)scale(0.07 -0.07)">
     <use xlink:href="#DejaVuSans-32"/>
    </g>
   </g>
   <g id="text_11">
    <!-- 1 -->
    <g transform="translate(323.7723 75.512219)scale(0.07 -0.07)">
     <use xlink:href="#DejaVuSans-31"/>
    </g>
   </g>
  </g>
 </g>
 <defs>
  <clipPath id="pe27b0970c0">
   <rect x="7.2" y="7.2" width="359.8506" height="261.936"/>
  </clipPath>
 </defs>
</svg>
