<?xml version="1.0" encoding="utf-8" standalone="no"?>
<!DOCTYPE svg PUBLIC "-//W3C//DTD SVG 1.1//EN"
  "http://www.w3.org/Graphics/SVG/1.1/DTD/svg11.dtd">
<!-- Created with matplotlib (https://matplotlib.org/) -->
<svg height="255.4668pt" version="1.1" viewBox="0 0 374.2506 255.4668" width="374.2506pt" xmlns="http://www.w3.org/2000/svg" xmlns:xlink="http://www.w3.org/1999/xlink">
 <defs>
  <style type="text/css">
*{stroke-linecap:butt;stroke-linejoin:round;}
  </style>
 </defs>
 <g id="figure_1">
  <g id="patch_1">
   <path d="M 0 255.4668 
L 374.2506 255.4668 
L 374.2506 0 
L 0 0 
z
" style="fill:#ffffff;"/>
  </g>
  <g id="axes_1">
   <g id="patch_2">
    <path clip-path="url(#p7f6ea11973)" d="M 149.7843 116.4114 
C 150.81541 116.4114 151.804427 116.024495 152.533531 115.335896 
C 153.262636 114.647297 153.6723 113.713226 153.6723 112.7394 
C 153.6723 111.765574 153.262636 110.831503 152.533531 110.142904 
C 151.804427 109.454305 150.81541 109.0674 149.7843 109.0674 
C 148.75319 109.0674 147.764173 109.454305 147.035069 110.142904 
C 146.305964 110.831503 145.8963 111.765574 145.8963 112.7394 
C 145.8963 113.713226 146.305964 114.647297 147.035069 115.335896 
C 147.764173 116.024495 148.75319 116.4114 149.7843 116.4114 
z
" style="fill:none;stroke:#000000;stroke-linejoin:miter;stroke-width:2;"/>
   </g>
   <g id="patch_3">
    <path clip-path="url(#p7f6ea11973)" d="M 149.7843 230.5494 
C 150.81541 230.5494 151.804427 230.162495 152.533531 229.473896 
C 153.262636 228.785297 153.6723 227.851226 153.6723 226.8774 
C 153.6723 225.903574 153.262636 224.969503 152.533531 224.280904 
C 151.804427 223.592305 150.81541 223.2054 149.7843 223.2054 
C 148.75319 223.2054 147.764173 223.592305 147.035069 224.280904 
C 146.305964 224.969503 145.8963 225.903574 145.8963 226.8774 
C 145.8963 227.851226 146.305964 228.785297 147.035069 229.473896 
C 147.764173 230.162495 148.75319 230.5494 149.7843 230.5494 
z
" style="fill:none;stroke:#000000;stroke-linejoin:miter;stroke-width:2;"/>
   </g>
   <g id="patch_4">
    <path clip-path="url(#p7f6ea11973)" d="M 149.7843 215.2494 
C 150.81541 215.2494 151.804427 214.862495 152.533531 214.173896 
C 153.262636 213.485297 153.6723 212.551226 153.6723 211.5774 
C 153.6723 210.603574 153.262636 209.669503 152.533531 208.980904 
C 151.804427 208.292305 150.81541 207.9054 149.7843 207.9054 
C 148.75319 207.9054 147.764173 208.292305 147.035069 208.980904 
C 146.305964 209.669503 145.8963 210.603574 145.8963 211.5774 
C 145.8963 212.551226 146.305964 213.485297 147.035069 214.173896 
C 147.764173 214.862495 148.75319 215.2494 149.7843 215.2494 
z
" style="fill:none;stroke:#000000;stroke-linejoin:miter;stroke-width:2;"/>
   </g>
   <g id="patch_5">
    <path clip-path="url(#p7f6ea11973)" d="M 28.9323 104.9364 
C 29.576744 104.9364 30.194879 104.694584 30.650569 104.26421 
C 31.10626 103.833836 31.3623 103.250041 31.3623 102.6414 
C 31.3623 102.032759 31.10626 101.448964 30.650569 101.01859 
C 30.194879 100.588216 29.576744 100.3464 28.9323 100.3464 
C 28.287856 100.3464 27.669721 100.588216 27.214031 101.01859 
C 26.75834 101.448964 26.5023 102.032759 26.5023 102.6414 
C 26.5023 103.250041 26.75834 103.833836 27.214031 104.26421 
C 27.669721 104.694584 28.287856 104.9364 28.9323 104.9364 
z
" style="stroke:#000000;stroke-linejoin:miter;stroke-width:2;"/>
   </g>
   <g id="patch_6">
    <path clip-path="url(#p7f6ea11973)" d="M 93.7323 125.1324 
C 94.376744 125.1324 94.994879 124.890584 95.450569 124.46021 
C 95.90626 124.029836 96.1623 123.446041 96.1623 122.8374 
C 96.1623 122.228759 95.90626 121.644964 95.450569 121.21459 
C 94.994879 120.784216 94.376744 120.5424 93.7323 120.5424 
C 93.087856 120.5424 92.469721 120.784216 92.014031 121.21459 
C 91.55834 121.644964 91.3023 122.228759 91.3023 122.8374 
C 91.3023 123.446041 91.55834 124.029836 92.014031 124.46021 
C 92.469721 124.890584 93.087856 125.1324 93.7323 125.1324 
z
" style="stroke:#000000;stroke-linejoin:miter;stroke-width:2;"/>
   </g>
   <g id="patch_7">
    <path clip-path="url(#p7f6ea11973)" d="M 126.1323 177.1524 
C 126.776744 177.1524 127.394879 176.910584 127.850569 176.48021 
C 128.30626 176.049836 128.5623 175.466041 128.5623 174.8574 
C 128.5623 174.248759 128.30626 173.664964 127.850569 173.23459 
C 127.394879 172.804216 126.776744 172.5624 126.1323 172.5624 
C 125.487856 172.5624 124.869721 172.804216 124.414031 173.23459 
C 123.95834 173.664964 123.7023 174.248759 123.7023 174.8574 
C 123.7023 175.466041 123.95834 176.049836 124.414031 176.48021 
C 124.869721 176.910584 125.487856 177.1524 126.1323 177.1524 
z
" style="stroke:#000000;stroke-linejoin:miter;stroke-width:2;"/>
   </g>
   <g id="patch_8">
    <path clip-path="url(#p7f6ea11973)" d="M 258.9723 115.0344 
C 259.616744 115.0344 260.234879 114.792584 260.690569 114.36221 
C 261.14626 113.931836 261.4023 113.348041 261.4023 112.7394 
C 261.4023 112.130759 261.14626 111.546964 260.690569 111.11659 
C 260.234879 110.686216 259.616744 110.4444 258.9723 110.4444 
C 258.327856 110.4444 257.709721 110.686216 257.254031 111.11659 
C 256.79834 111.546964 256.5423 112.130759 256.5423 112.7394 
C 256.5423 113.348041 256.79834 113.931836 257.254031 114.36221 
C 257.709721 114.792584 258.327856 115.0344 258.9723 115.0344 
z
" style="stroke:#000000;stroke-linejoin:miter;stroke-width:2;"/>
   </g>
   <g id="line2d_1">
    <path clip-path="url(#p7f6ea11973)" d="M 174.7323 128.0394 
L 175.770238 128.007965 
L 176.80391 127.913787 
L 177.82907 127.757255 
L 178.841504 127.539011 
L 179.837053 127.259953 
L 180.811625 126.921226 
L 181.761217 126.524224 
L 182.681924 126.070576 
L 183.569965 125.562148 
L 184.421691 125.001028 
L 185.2336 124.389523 
L 186.002357 123.730145 
L 186.724804 123.025604 
L 187.39797 122.278794 
L 188.019091 121.492785 
L 188.585613 120.670806 
L 189.095209 119.816236 
L 189.545784 118.932585 
L 189.935488 118.023485 
L 190.262719 117.092672 
L 190.526132 116.14397 
L 190.724645 115.181278 
L 190.857442 114.208552 
L 190.923977 113.229789 
L 190.923977 112.249011 
L 190.857442 111.270248 
L 190.724645 110.297522 
L 190.526132 109.33483 
L 190.262719 108.386128 
L 189.935488 107.455315 
L 189.545784 106.546215 
L 189.095209 105.662564 
L 188.585613 104.807994 
L 188.019091 103.986015 
L 187.39797 103.200006 
L 186.724804 102.453196 
L 186.002357 101.748655 
L 185.2336 101.089277 
L 184.421691 100.477772 
L 183.569965 99.916652 
L 182.681924 99.408224 
L 181.761217 98.954576 
L 180.811625 98.557574 
L 179.837053 98.218847 
L 178.841504 97.939789 
L 177.82907 97.721545 
L 176.80391 97.565013 
L 175.770238 97.470835 
L 174.7323 97.4394 
L 153.6723 97.4394 
L 153.6723 112.7394 
L 153.6723 128.0394 
L 174.7323 128.0394 
" style="fill:none;stroke:#000000;stroke-linecap:round;stroke-width:2;"/>
   </g>
   <g id="line2d_2">
    <path clip-path="url(#p7f6ea11973)" d="M 142.3323 122.8374 
L 153.6723 122.8374 
" style="fill:none;stroke:#000000;stroke-linecap:round;stroke-width:2;"/>
   </g>
   <g id="line2d_3">
    <path clip-path="url(#p7f6ea11973)" d="M 142.3323 112.7394 
L 145.8963 112.7394 
" style="fill:none;stroke:#000000;stroke-linecap:round;stroke-width:2;"/>
   </g>
   <g id="line2d_4">
    <path clip-path="url(#p7f6ea11973)" d="M 142.3323 102.6414 
L 153.6723 102.6414 
" style="fill:none;stroke:#000000;stroke-linecap:round;stroke-width:2;"/>
   </g>
   <g id="line2d_5">
    <path clip-path="url(#p7f6ea11973)" d="M 142.3323 112.7394 
M 190.9323 112.7394 
L 202.2723 112.7394 
" style="fill:none;stroke:#000000;stroke-linecap:round;stroke-width:2;"/>
   </g>
   <g id="line2d_6">
    <path clip-path="url(#p7f6ea11973)" d="M 174.7323 182.5074 
L 175.770238 182.475965 
L 176.80391 182.381787 
L 177.82907 182.225255 
L 178.841504 182.007011 
L 179.837053 181.727953 
L 180.811625 181.389226 
L 181.761217 180.992224 
L 182.681924 180.538576 
L 183.569965 180.030148 
L 184.421691 179.469028 
L 185.2336 178.857523 
L 186.002357 178.198145 
L 186.724804 177.493604 
L 187.39797 176.746794 
L 188.019091 175.960785 
L 188.585613 175.138806 
L 189.095209 174.284236 
L 189.545784 173.400585 
L 189.935488 172.491485 
L 190.262719 171.560672 
L 190.526132 170.61197 
L 190.724645 169.649278 
L 190.857442 168.676552 
L 190.923977 167.697789 
L 190.923977 166.717011 
L 190.857442 165.738248 
L 190.724645 164.765522 
L 190.526132 163.80283 
L 190.262719 162.854128 
L 189.935488 161.923315 
L 189.545784 161.014215 
L 189.095209 160.130564 
L 188.585613 159.275994 
L 188.019091 158.454015 
L 187.39797 157.668006 
L 186.724804 156.921196 
L 186.002357 156.216655 
L 185.2336 155.557277 
L 184.421691 154.945772 
L 183.569965 154.384652 
L 182.681924 153.876224 
L 181.761217 153.422576 
L 180.811625 153.025574 
L 179.837053 152.686847 
L 178.841504 152.407789 
L 177.82907 152.189545 
L 176.80391 152.033013 
L 175.770238 151.938835 
L 174.7323 151.9074 
L 153.6723 151.9074 
L 153.6723 167.2074 
L 153.6723 182.5074 
L 174.7323 182.5074 
" style="fill:none;stroke:#000000;stroke-linecap:round;stroke-width:2;"/>
   </g>
   <g id="line2d_7">
    <path clip-path="url(#p7f6ea11973)" d="M 142.3323 174.8574 
L 153.6723 174.8574 
" style="fill:none;stroke:#000000;stroke-linecap:round;stroke-width:2;"/>
   </g>
   <g id="line2d_8">
    <path clip-path="url(#p7f6ea11973)" d="M 142.3323 159.5574 
L 153.6723 159.5574 
" style="fill:none;stroke:#000000;stroke-linecap:round;stroke-width:2;"/>
   </g>
   <g id="line2d_9">
    <path clip-path="url(#p7f6ea11973)" d="M 142.3323 167.2074 
M 190.9323 167.2074 
L 202.2723 167.2074 
" style="fill:none;stroke:#000000;stroke-linecap:round;stroke-width:2;"/>
   </g>
   <g id="line2d_10">
    <path clip-path="url(#p7f6ea11973)" d="M 174.7323 234.5274 
L 175.770238 234.495965 
L 176.80391 234.401787 
L 177.82907 234.245255 
L 178.841504 234.027011 
L 179.837053 233.747953 
L 180.811625 233.409226 
L 181.761217 233.012224 
L 182.681924 232.558576 
L 183.569965 232.050148 
L 184.421691 231.489028 
L 185.2336 230.877523 
L 186.002357 230.218145 
L 186.724804 229.513604 
L 187.39797 228.766794 
L 188.019091 227.980785 
L 188.585613 227.158806 
L 189.095209 226.304236 
L 189.545784 225.420585 
L 189.935488 224.511485 
L 190.262719 223.580672 
L 190.526132 222.63197 
L 190.724645 221.669278 
L 190.857442 220.696552 
L 190.923977 219.717789 
L 190.923977 218.737011 
L 190.857442 217.758248 
L 190.724645 216.785522 
L 190.526132 215.82283 
L 190.262719 214.874128 
L 189.935488 213.943315 
L 189.545784 213.034215 
L 189.095209 212.150564 
L 188.585613 211.295994 
L 188.019091 210.474015 
L 187.39797 209.688006 
L 186.724804 208.941196 
L 186.002357 208.236655 
L 185.2336 207.577277 
L 184.421691 206.965772 
L 183.569965 206.404652 
L 182.681924 205.896224 
L 181.761217 205.442576 
L 180.811625 205.045574 
L 179.837053 204.706847 
L 178.841504 204.427789 
L 177.82907 204.209545 
L 176.80391 204.053013 
L 175.770238 203.958835 
L 174.7323 203.9274 
L 153.6723 203.9274 
L 153.6723 219.2274 
L 153.6723 234.5274 
L 174.7323 234.5274 
" style="fill:none;stroke:#000000;stroke-linecap:round;stroke-width:2;"/>
   </g>
   <g id="line2d_11">
    <path clip-path="url(#p7f6ea11973)" d="M 142.3323 226.8774 
L 145.8963 226.8774 
" style="fill:none;stroke:#000000;stroke-linecap:round;stroke-width:2;"/>
   </g>
   <g id="line2d_12">
    <path clip-path="url(#p7f6ea11973)" d="M 142.3323 211.5774 
L 145.8963 211.5774 
" style="fill:none;stroke:#000000;stroke-linecap:round;stroke-width:2;"/>
   </g>
   <g id="line2d_13">
    <path clip-path="url(#p7f6ea11973)" d="M 142.3323 219.2274 
M 190.9323 219.2274 
L 202.2723 219.2274 
" style="fill:none;stroke:#000000;stroke-linecap:round;stroke-width:2;"/>
   </g>
   <g id="line2d_14">
    <path clip-path="url(#p7f6ea11973)" d="M 126.1323 87.3414 
L 126.1323 157.1094 
L 126.1323 226.8774 
" style="fill:none;stroke:#000000;stroke-linecap:round;stroke-width:2;"/>
   </g>
   <g id="line2d_15">
    <path clip-path="url(#p7f6ea11973)" d="M 93.7323 87.3414 
L 93.7323 123.4494 
L 93.7323 159.5574 
" style="fill:none;stroke:#000000;stroke-linecap:round;stroke-width:2;"/>
   </g>
   <g id="line2d_16">
    <path clip-path="url(#p7f6ea11973)" d="M 61.3323 87.3414 
L 61.3323 100.0404 
L 61.3323 112.7394 
" style="fill:none;stroke:#000000;stroke-linecap:round;stroke-width:2;"/>
   </g>
   <g id="line2d_17">
    <path clip-path="url(#p7f6ea11973)" d="M 28.9323 87.3414 
L 28.9323 149.4594 
L 28.9323 211.5774 
" style="fill:none;stroke:#000000;stroke-linecap:round;stroke-width:2;"/>
   </g>
   <g id="line2d_18">
    <path clip-path="url(#p7f6ea11973)" d="M 142.3323 102.6414 
L 85.6323 102.6414 
L 28.9323 102.6414 
" style="fill:none;stroke:#000000;stroke-linecap:round;stroke-width:2;"/>
   </g>
   <g id="line2d_19">
    <path clip-path="url(#p7f6ea11973)" d="M 28.9323 102.6414 
" style="fill:none;stroke:#000000;stroke-linecap:round;stroke-width:2;"/>
   </g>
   <g id="line2d_20">
    <path clip-path="url(#p7f6ea11973)" d="M 142.3323 112.7394 
L 101.8323 112.7394 
L 61.3323 112.7394 
" style="fill:none;stroke:#000000;stroke-linecap:round;stroke-width:2;"/>
   </g>
   <g id="line2d_21">
    <path clip-path="url(#p7f6ea11973)" d="M 142.3323 122.8374 
L 118.0323 122.8374 
L 93.7323 122.8374 
" style="fill:none;stroke:#000000;stroke-linecap:round;stroke-width:2;"/>
   </g>
   <g id="line2d_22">
    <path clip-path="url(#p7f6ea11973)" d="M 93.7323 122.8374 
" style="fill:none;stroke:#000000;stroke-linecap:round;stroke-width:2;"/>
   </g>
   <g id="line2d_23">
    <path clip-path="url(#p7f6ea11973)" d="M 142.3323 159.5574 
L 118.0323 159.5574 
L 93.7323 159.5574 
" style="fill:none;stroke:#000000;stroke-linecap:round;stroke-width:2;"/>
   </g>
   <g id="line2d_24">
    <path clip-path="url(#p7f6ea11973)" d="M 142.3323 174.8574 
L 134.2323 174.8574 
L 126.1323 174.8574 
" style="fill:none;stroke:#000000;stroke-linecap:round;stroke-width:2;"/>
   </g>
   <g id="line2d_25">
    <path clip-path="url(#p7f6ea11973)" d="M 126.1323 174.8574 
" style="fill:none;stroke:#000000;stroke-linecap:round;stroke-width:2;"/>
   </g>
   <g id="line2d_26">
    <path clip-path="url(#p7f6ea11973)" d="M 142.3323 211.5774 
L 85.6323 211.5774 
L 28.9323 211.5774 
" style="fill:none;stroke:#000000;stroke-linecap:round;stroke-width:2;"/>
   </g>
   <g id="line2d_27">
    <path clip-path="url(#p7f6ea11973)" d="M 142.3323 226.8774 
L 134.2323 226.8774 
L 126.1323 226.8774 
" style="fill:none;stroke:#000000;stroke-linecap:round;stroke-width:2;"/>
   </g>
   <g id="line2d_28">
    <path clip-path="url(#p7f6ea11973)" d="M 282.9483 68.3694 
L 282.842504 51.320829 
L 282.525116 49.572257 
L 281.996137 47.823686 
L 281.255565 46.075114 
L 280.303402 44.326543 
L 279.139647 42.577971 
L 277.387402 40.392257 
L 275.304545 38.206543 
L 272.891076 36.020829 
L 270.146994 33.835114 
L 267.0723 31.6494 
L 267.0723 31.6494 
L 263.997606 33.835114 
L 261.253524 36.020829 
L 258.840055 38.206543 
L 256.757198 40.392257 
L 255.004953 42.577971 
L 253.58332 44.763686 
L 252.684055 46.512257 
L 251.996382 48.260829 
L 251.5203 50.0094 
L 251.25581 51.757971 
L 251.1963 53.0694 
L 251.1963 68.3694 
L 251.1963 68.3694 
L 253.7883 66.1662 
L 255.7323 64.77084 
L 257.6763 63.5958 
L 259.6203 62.64108 
L 261.5643 61.90668 
L 263.5083 61.3926 
L 265.4523 61.09884 
L 267.3963 61.0254 
L 269.3403 61.17228 
L 271.2843 61.53948 
L 273.2283 62.127 
L 275.1723 62.93484 
L 277.1163 63.963 
L 279.0603 65.21148 
L 281.0043 66.68028 
L 282.9483 68.3694 
L 282.9483 68.3694 
" style="fill:none;stroke:#000000;stroke-linecap:round;stroke-width:2;"/>
   </g>
   <g id="line2d_29">
    <path clip-path="url(#p7f6ea11973)" d="M 275.1723 79.0794 
L 275.1723 62.93484 
" style="fill:none;stroke:#000000;stroke-linecap:round;stroke-width:2;"/>
   </g>
   <g id="line2d_30">
    <path clip-path="url(#p7f6ea11973)" d="M 258.9723 79.0794 
L 258.9723 62.93484 
" style="fill:none;stroke:#000000;stroke-linecap:round;stroke-width:2;"/>
   </g>
   <g id="line2d_31">
    <path clip-path="url(#p7f6ea11973)" d="M 267.0723 79.0794 
M 267.0723 31.6494 
L 267.0723 20.9394 
" style="fill:none;stroke:#000000;stroke-linecap:round;stroke-width:2;"/>
   </g>
   <g id="line2d_32">
    <path clip-path="url(#p7f6ea11973)" d="M 347.7483 68.3694 
L 347.642504 51.320829 
L 347.325116 49.572257 
L 346.796137 47.823686 
L 346.055565 46.075114 
L 345.103402 44.326543 
L 343.939647 42.577971 
L 342.187402 40.392257 
L 340.104545 38.206543 
L 337.691076 36.020829 
L 334.946994 33.835114 
L 331.8723 31.6494 
L 331.8723 31.6494 
L 328.797606 33.835114 
L 326.053524 36.020829 
L 323.640055 38.206543 
L 321.557198 40.392257 
L 319.804953 42.577971 
L 318.38332 44.763686 
L 317.484055 46.512257 
L 316.796382 48.260829 
L 316.3203 50.0094 
L 316.05581 51.757971 
L 315.9963 53.0694 
L 315.9963 68.3694 
L 315.9963 68.3694 
L 318.5883 66.1662 
L 320.5323 64.77084 
L 322.4763 63.5958 
L 324.4203 62.64108 
L 326.3643 61.90668 
L 328.3083 61.3926 
L 330.2523 61.09884 
L 332.1963 61.0254 
L 334.1403 61.17228 
L 336.0843 61.53948 
L 338.0283 62.127 
L 339.9723 62.93484 
L 341.9163 63.963 
L 343.8603 65.21148 
L 345.8043 66.68028 
L 347.7483 68.3694 
L 347.7483 68.3694 
" style="fill:none;stroke:#000000;stroke-linecap:round;stroke-width:2;"/>
   </g>
   <g id="line2d_33">
    <path clip-path="url(#p7f6ea11973)" d="M 339.9723 79.0794 
L 339.9723 62.93484 
" style="fill:none;stroke:#000000;stroke-linecap:round;stroke-width:2;"/>
   </g>
   <g id="line2d_34">
    <path clip-path="url(#p7f6ea11973)" d="M 323.7723 79.0794 
L 323.7723 62.93484 
" style="fill:none;stroke:#000000;stroke-linecap:round;stroke-width:2;"/>
   </g>
   <g id="line2d_35">
    <path clip-path="url(#p7f6ea11973)" d="M 331.8723 79.0794 
M 331.8723 31.6494 
L 331.8723 20.9394 
" style="fill:none;stroke:#000000;stroke-linecap:round;stroke-width:2;"/>
   </g>
   <g id="line2d_36">
    <path clip-path="url(#p7f6ea11973)" d="M 258.9723 79.0794 
L 258.9723 95.9094 
L 258.9723 112.7394 
" style="fill:none;stroke:#000000;stroke-linecap:round;stroke-width:2;"/>
   </g>
   <g id="line2d_37">
    <path clip-path="url(#p7f6ea11973)" d="M 258.9723 112.7394 
" style="fill:none;stroke:#000000;stroke-linecap:round;stroke-width:2;"/>
   </g>
   <g id="line2d_38">
    <path clip-path="url(#p7f6ea11973)" d="M 275.1723 79.0794 
L 275.1723 123.1434 
L 275.1723 167.2074 
" style="fill:none;stroke:#000000;stroke-linecap:round;stroke-width:2;"/>
   </g>
   <g id="line2d_39">
    <path clip-path="url(#p7f6ea11973)" d="M 202.2723 167.2074 
L 238.7223 167.2074 
L 275.1723 167.2074 
" style="fill:none;stroke:#000000;stroke-linecap:round;stroke-width:2;"/>
   </g>
   <g id="line2d_40">
    <path clip-path="url(#p7f6ea11973)" d="M 323.7723 79.0794 
L 323.7723 95.9094 
L 323.7723 112.7394 
" style="fill:none;stroke:#000000;stroke-linecap:round;stroke-width:2;"/>
   </g>
   <g id="line2d_41">
    <path clip-path="url(#p7f6ea11973)" d="M 202.2723 112.7394 
L 263.0223 112.7394 
L 323.7723 112.7394 
" style="fill:none;stroke:#000000;stroke-linecap:round;stroke-width:2;"/>
   </g>
   <g id="line2d_42">
    <path clip-path="url(#p7f6ea11973)" d="M 339.9723 79.0794 
L 339.9723 149.1534 
L 339.9723 219.2274 
" style="fill:none;stroke:#000000;stroke-linecap:round;stroke-width:2;"/>
   </g>
   <g id="line2d_43">
    <path clip-path="url(#p7f6ea11973)" d="M 202.2723 219.2274 
L 271.1223 219.2274 
L 339.9723 219.2274 
" style="fill:none;stroke:#000000;stroke-linecap:round;stroke-width:2;"/>
   </g>
   <g id="text_1">
    <!-- D -->
    <defs>
     <path d="M 19.671875 64.796875 
L 19.671875 8.109375 
L 31.59375 8.109375 
Q 46.6875 8.109375 53.6875 14.9375 
Q 60.6875 21.78125 60.6875 36.53125 
Q 60.6875 51.171875 53.6875 57.984375 
Q 46.6875 64.796875 31.59375 64.796875 
z
M 9.8125 72.90625 
L 30.078125 72.90625 
Q 51.265625 72.90625 61.171875 64.09375 
Q 71.09375 55.28125 71.09375 36.53125 
Q 71.09375 17.671875 61.125 8.828125 
Q 51.171875 0 30.078125 0 
L 9.8125 0 
z
" id="DejaVuSans-68"/>
    </defs>
    <g transform="translate(120.7423 81.369837)scale(0.14 -0.14)">
     <use xlink:href="#DejaVuSans-68"/>
    </g>
   </g>
   <g id="text_2">
    <!-- C -->
    <defs>
     <path d="M 64.40625 67.28125 
L 64.40625 56.890625 
Q 59.421875 61.53125 53.78125 63.8125 
Q 48.140625 66.109375 41.796875 66.109375 
Q 29.296875 66.109375 22.65625 58.46875 
Q 16.015625 50.828125 16.015625 36.375 
Q 16.015625 21.96875 22.65625 14.328125 
Q 29.296875 6.6875 41.796875 6.6875 
Q 48.140625 6.6875 53.78125 8.984375 
Q 59.421875 11.28125 64.40625 15.921875 
L 64.40625 5.609375 
Q 59.234375 2.09375 53.4375 0.328125 
Q 47.65625 -1.421875 41.21875 -1.421875 
Q 24.65625 -1.421875 15.125 8.703125 
Q 5.609375 18.84375 5.609375 36.375 
Q 5.609375 53.953125 15.125 64.078125 
Q 24.65625 74.21875 41.21875 74.21875 
Q 47.75 74.21875 53.53125 72.484375 
Q 59.328125 70.75 64.40625 67.28125 
z
" id="DejaVuSans-67"/>
    </defs>
    <g transform="translate(88.844331 81.369837)scale(0.14 -0.14)">
     <use xlink:href="#DejaVuSans-67"/>
    </g>
   </g>
   <g id="text_3">
    <!-- B -->
    <defs>
     <path d="M 19.671875 34.8125 
L 19.671875 8.109375 
L 35.5 8.109375 
Q 43.453125 8.109375 47.28125 11.40625 
Q 51.125 14.703125 51.125 21.484375 
Q 51.125 28.328125 47.28125 31.5625 
Q 43.453125 34.8125 35.5 34.8125 
z
M 19.671875 64.796875 
L 19.671875 42.828125 
L 34.28125 42.828125 
Q 41.5 42.828125 45.03125 45.53125 
Q 48.578125 48.25 48.578125 53.8125 
Q 48.578125 59.328125 45.03125 62.0625 
Q 41.5 64.796875 34.28125 64.796875 
z
M 9.8125 72.90625 
L 35.015625 72.90625 
Q 46.296875 72.90625 52.390625 68.21875 
Q 58.5 63.53125 58.5 54.890625 
Q 58.5 48.1875 55.375 44.234375 
Q 52.25 40.28125 46.1875 39.3125 
Q 53.46875 37.75 57.5 32.78125 
Q 61.53125 27.828125 61.53125 20.40625 
Q 61.53125 10.640625 54.890625 5.3125 
Q 48.25 0 35.984375 0 
L 9.8125 0 
z
" id="DejaVuSans-66"/>
    </defs>
    <g transform="translate(56.529644 81.369837)scale(0.14 -0.14)">
     <use xlink:href="#DejaVuSans-66"/>
    </g>
   </g>
   <g id="text_4">
    <!-- A -->
    <defs>
     <path d="M 34.1875 63.1875 
L 20.796875 26.90625 
L 47.609375 26.90625 
z
M 28.609375 72.90625 
L 39.796875 72.90625 
L 67.578125 0 
L 57.328125 0 
L 50.6875 18.703125 
L 17.828125 18.703125 
L 11.1875 0 
L 0.78125 0 
z
" id="DejaVuSans-65"/>
    </defs>
    <g transform="translate(24.143862 81.369837)scale(0.14 -0.14)">
     <use xlink:href="#DejaVuSans-65"/>
    </g>
   </g>
   <g id="text_5">
    <!-- F1 -->
    <defs>
     <path d="M 9.8125 72.90625 
L 51.703125 72.90625 
L 51.703125 64.59375 
L 19.671875 64.59375 
L 19.671875 43.109375 
L 48.578125 43.109375 
L 48.578125 34.8125 
L 19.671875 34.8125 
L 19.671875 0 
L 9.8125 0 
z
" id="DejaVuSans-70"/>
     <path d="M 12.40625 8.296875 
L 28.515625 8.296875 
L 28.515625 63.921875 
L 10.984375 60.40625 
L 10.984375 69.390625 
L 28.421875 72.90625 
L 38.28125 72.90625 
L 38.28125 8.296875 
L 54.390625 8.296875 
L 54.390625 0 
L 12.40625 0 
z
" id="DejaVuSans-49"/>
    </defs>
    <g transform="translate(246.872612 24.802525)scale(0.14 -0.14)">
     <use xlink:href="#DejaVuSans-70"/>
     <use x="57.519531" xlink:href="#DejaVuSans-49"/>
    </g>
   </g>
   <g id="text_6">
    <!-- F2 -->
    <defs>
     <path d="M 19.1875 8.296875 
L 53.609375 8.296875 
L 53.609375 0 
L 7.328125 0 
L 7.328125 8.296875 
Q 12.9375 14.109375 22.625 23.890625 
Q 32.328125 33.6875 34.8125 36.53125 
Q 39.546875 41.84375 41.421875 45.53125 
Q 43.3125 49.21875 43.3125 52.78125 
Q 43.3125 58.59375 39.234375 62.25 
Q 35.15625 65.921875 28.609375 65.921875 
Q 23.96875 65.921875 18.8125 64.3125 
Q 13.671875 62.703125 7.8125 59.421875 
L 7.8125 69.390625 
Q 13.765625 71.78125 18.9375 73 
Q 24.125 74.21875 28.421875 74.21875 
Q 39.75 74.21875 46.484375 68.546875 
Q 53.21875 62.890625 53.21875 53.421875 
Q 53.21875 48.921875 51.53125 44.890625 
Q 49.859375 40.875 45.40625 35.40625 
Q 44.1875 33.984375 37.640625 27.21875 
Q 31.109375 20.453125 19.1875 8.296875 
z
" id="DejaVuSans-50"/>
    </defs>
    <g transform="translate(311.672613 24.802525)scale(0.14 -0.14)">
     <use xlink:href="#DejaVuSans-70"/>
     <use x="57.519531" xlink:href="#DejaVuSans-50"/>
    </g>
   </g>
  </g>
 </g>
 <defs>
  <clipPath id="p7f6ea11973">
   <rect height="241.0668" width="359.8506" x="7.2" y="7.2"/>
  </clipPath>
 </defs>
</svg>
