<?xml version="1.0" encoding="utf-8" standalone="no"?>
<!DOCTYPE svg PUBLIC "-//W3C//DTD SVG 1.1//EN"
  "http://www.w3.org/Graphics/SVG/1.1/DTD/svg11.dtd">
<!-- Created with matplotlib (https://matplotlib.org/) -->
<svg height="147.779875pt" version="1.1" viewBox="0 0 300.654 147.779875" width="300.654pt" xmlns="http://www.w3.org/2000/svg" xmlns:xlink="http://www.w3.org/1999/xlink">
 <defs>
  <style type="text/css">
*{stroke-linecap:butt;stroke-linejoin:round;}
  </style>
 </defs>
 <g id="figure_1">
  <g id="patch_1">
   <path d="M 0 147.779875 
L 300.654 147.779875 
L 300.654 0 
L 0 0 
z
" style="fill:none;"/>
  </g>
  <g id="axes_1">
   <g id="patch_2">
    <path clip-path="url(#p836b3afb54)" d="M 114.039 54.787375 
C 115.07011 54.787375 116.059127 54.434609 116.788231 53.806769 
C 117.517336 53.178928 117.927 52.327275 117.927 51.439375 
C 117.927 50.551475 117.517336 49.699822 116.788231 49.071981 
C 116.059127 48.444141 115.07011 48.091375 114.039 48.091375 
C 113.00789 48.091375 112.018873 48.444141 111.289769 49.071981 
C 110.560664 49.699822 110.151 50.551475 110.151 51.439375 
C 110.151 52.327275 110.560664 53.178928 111.289769 53.806769 
C 112.018873 54.434609 113.00789 54.787375 114.039 54.787375 
z
" style="fill:none;stroke:#000000;stroke-linejoin:miter;stroke-width:2;"/>
   </g>
   <g id="patch_3">
    <path clip-path="url(#p836b3afb54)" d="M 25.587 39.581875 
C 26.231444 39.581875 26.849579 39.361396 27.305269 38.968996 
C 27.76096 38.576596 28.017 38.044312 28.017 37.489375 
C 28.017 36.934438 27.76096 36.402154 27.305269 36.009754 
C 26.849579 35.617354 26.231444 35.396875 25.587 35.396875 
C 24.942556 35.396875 24.324421 35.617354 23.868731 36.009754 
C 23.41304 36.402154 23.157 36.934438 23.157 37.489375 
C 23.157 38.044312 23.41304 38.576596 23.868731 38.968996 
C 24.324421 39.361396 24.942556 39.581875 25.587 39.581875 
z
" style="stroke:#000000;stroke-linejoin:miter;stroke-width:2;"/>
   </g>
   <g id="patch_4">
    <path clip-path="url(#p836b3afb54)" d="M 57.987 100.961875 
C 58.631444 100.961875 59.249579 100.741396 59.705269 100.348996 
C 60.16096 99.956596 60.417 99.424312 60.417 98.869375 
C 60.417 98.314438 60.16096 97.782154 59.705269 97.389754 
C 59.249579 96.997354 58.631444 96.776875 57.987 96.776875 
C 57.342556 96.776875 56.724421 96.997354 56.268731 97.389754 
C 55.81304 97.782154 55.557 98.314438 55.557 98.869375 
C 55.557 99.424312 55.81304 99.956596 56.268731 100.348996 
C 56.724421 100.741396 57.342556 100.961875 57.987 100.961875 
z
" style="stroke:#000000;stroke-linejoin:miter;stroke-width:2;"/>
   </g>
   <g id="patch_5">
    <path clip-path="url(#p836b3afb54)" d="M 223.58988 104.449375 
C 224.62099 104.449375 225.610007 104.096609 226.339111 103.468769 
C 227.068216 102.840928 227.47788 101.989275 227.47788 101.101375 
C 227.47788 100.213475 227.068216 99.361822 226.339111 98.733981 
C 225.610007 98.106141 224.62099 97.753375 223.58988 97.753375 
C 222.55877 97.753375 221.569753 98.106141 220.840649 98.733981 
C 220.111544 99.361822 219.70188 100.213475 219.70188 101.101375 
C 219.70188 101.989275 220.111544 102.840928 220.840649 103.468769 
C 221.569753 104.096609 222.55877 104.449375 223.58988 104.449375 
z
" style="fill:none;stroke:#000000;stroke-linejoin:miter;stroke-width:2;"/>
   </g>
   <g id="line2d_1">
    <path clip-path="url(#p836b3afb54)" d="M 138.987 58.414375 
L 140.024938 58.385713 
L 141.05861 58.299846 
L 142.08377 58.157125 
L 143.096204 57.958138 
L 144.091753 57.703703 
L 145.066325 57.394864 
L 146.015917 57.032891 
L 146.936624 56.619271 
L 147.824665 56.155704 
L 148.676391 55.644095 
L 149.4883 55.086546 
L 150.257057 54.485348 
L 150.979504 53.842972 
L 151.65267 53.162058 
L 152.273791 52.445402 
L 152.840313 51.695951 
L 153.349909 50.916784 
L 153.800484 50.111103 
L 154.190188 49.282218 
L 154.517419 48.433535 
L 154.780832 47.568542 
L 154.979345 46.690794 
L 155.112142 45.803896 
L 155.178677 44.911495 
L 155.178677 44.017255 
L 155.112142 43.124854 
L 154.979345 42.237956 
L 154.780832 41.360208 
L 154.517419 40.495215 
L 154.190188 39.646532 
L 153.800484 38.817647 
L 153.349909 38.011966 
L 152.840313 37.232799 
L 152.273791 36.483348 
L 151.65267 35.766692 
L 150.979504 35.085778 
L 150.257057 34.443402 
L 149.4883 33.842204 
L 148.676391 33.284655 
L 147.824665 32.773046 
L 146.936624 32.309479 
L 146.015917 31.895859 
L 145.066325 31.533886 
L 144.091753 31.225047 
L 143.096204 30.970612 
L 142.08377 30.771625 
L 141.05861 30.628904 
L 140.024938 30.543037 
L 138.987 30.514375 
L 117.927 30.514375 
L 117.927 44.464375 
L 117.927 58.414375 
L 138.987 58.414375 
" style="fill:none;stroke:#000000;stroke-linecap:round;stroke-width:2;"/>
   </g>
   <g id="line2d_2">
    <path clip-path="url(#p836b3afb54)" d="M 106.587 51.439375 
L 110.151 51.439375 
" style="fill:none;stroke:#000000;stroke-linecap:round;stroke-width:2;"/>
   </g>
   <g id="line2d_3">
    <path clip-path="url(#p836b3afb54)" d="M 106.587 37.489375 
L 117.927 37.489375 
" style="fill:none;stroke:#000000;stroke-linecap:round;stroke-width:2;"/>
   </g>
   <g id="line2d_4">
    <path clip-path="url(#p836b3afb54)" d="M 106.587 44.464375 
M 155.187 44.464375 
L 166.527 44.464375 
" style="fill:none;stroke:#000000;stroke-linecap:round;stroke-width:2;"/>
   </g>
   <g id="line2d_5">
    <path clip-path="url(#p836b3afb54)" d="M 138.987 105.844375 
L 140.024938 105.815713 
L 141.05861 105.729846 
L 142.08377 105.587125 
L 143.096204 105.388138 
L 144.091753 105.133703 
L 145.066325 104.824864 
L 146.015917 104.462891 
L 146.936624 104.049271 
L 147.824665 103.585704 
L 148.676391 103.074095 
L 149.4883 102.516546 
L 150.257057 101.915348 
L 150.979504 101.272972 
L 151.65267 100.592058 
L 152.273791 99.875402 
L 152.840313 99.125951 
L 153.349909 98.346784 
L 153.800484 97.541103 
L 154.190188 96.712218 
L 154.517419 95.863535 
L 154.780832 94.998542 
L 154.979345 94.120794 
L 155.112142 93.233896 
L 155.178677 92.341495 
L 155.178677 91.447255 
L 155.112142 90.554854 
L 154.979345 89.667956 
L 154.780832 88.790208 
L 154.517419 87.925215 
L 154.190188 87.076532 
L 153.800484 86.247647 
L 153.349909 85.441966 
L 152.840313 84.662799 
L 152.273791 83.913348 
L 151.65267 83.196692 
L 150.979504 82.515778 
L 150.257057 81.873402 
L 149.4883 81.272204 
L 148.676391 80.714655 
L 147.824665 80.203046 
L 146.936624 79.739479 
L 146.015917 79.325859 
L 145.066325 78.963886 
L 144.091753 78.655047 
L 143.096204 78.400612 
L 142.08377 78.201625 
L 141.05861 78.058904 
L 140.024938 77.973037 
L 138.987 77.944375 
L 117.927 77.944375 
L 117.927 91.894375 
L 117.927 105.844375 
L 138.987 105.844375 
" style="fill:none;stroke:#000000;stroke-linecap:round;stroke-width:2;"/>
   </g>
   <g id="line2d_6">
    <path clip-path="url(#p836b3afb54)" d="M 106.587 98.869375 
L 117.927 98.869375 
" style="fill:none;stroke:#000000;stroke-linecap:round;stroke-width:2;"/>
   </g>
   <g id="line2d_7">
    <path clip-path="url(#p836b3afb54)" d="M 106.587 84.919375 
L 117.927 84.919375 
" style="fill:none;stroke:#000000;stroke-linecap:round;stroke-width:2;"/>
   </g>
   <g id="line2d_8">
    <path clip-path="url(#p836b3afb54)" d="M 106.587 91.894375 
M 155.187 91.894375 
L 166.527 91.894375 
" style="fill:none;stroke:#000000;stroke-linecap:round;stroke-width:2;"/>
   </g>
   <g id="line2d_9">
    <path clip-path="url(#p836b3afb54)" d="M 106.587 132.349375 
L 136.557 132.349375 
L 166.527 132.349375 
" style="fill:none;stroke:#000000;stroke-linecap:round;stroke-width:2;"/>
   </g>
   <g id="line2d_10">
    <path clip-path="url(#p836b3afb54)" d="M 90.387 23.539375 
L 90.387 37.489375 
L 90.387 51.439375 
" style="fill:none;stroke:#000000;stroke-linecap:round;stroke-width:2;"/>
   </g>
   <g id="line2d_11">
    <path clip-path="url(#p836b3afb54)" d="M 57.987 23.539375 
L 57.987 77.944375 
L 57.987 132.349375 
" style="fill:none;stroke:#000000;stroke-linecap:round;stroke-width:2;"/>
   </g>
   <g id="line2d_12">
    <path clip-path="url(#p836b3afb54)" d="M 25.587 23.539375 
L 25.587 54.229375 
L 25.587 84.919375 
" style="fill:none;stroke:#000000;stroke-linecap:round;stroke-width:2;"/>
   </g>
   <g id="line2d_13">
    <path clip-path="url(#p836b3afb54)" d="M 106.587 37.489375 
L 66.087 37.489375 
L 25.587 37.489375 
" style="fill:none;stroke:#000000;stroke-linecap:round;stroke-width:2;"/>
   </g>
   <g id="line2d_14">
    <path clip-path="url(#p836b3afb54)" d="M 25.587 37.489375 
" style="fill:none;stroke:#000000;stroke-linecap:round;stroke-width:2;"/>
   </g>
   <g id="line2d_15">
    <path clip-path="url(#p836b3afb54)" d="M 106.587 51.439375 
L 98.487 51.439375 
L 90.387 51.439375 
" style="fill:none;stroke:#000000;stroke-linecap:round;stroke-width:2;"/>
   </g>
   <g id="line2d_16">
    <path clip-path="url(#p836b3afb54)" d="M 106.587 84.919375 
L 66.087 84.919375 
L 25.587 84.919375 
" style="fill:none;stroke:#000000;stroke-linecap:round;stroke-width:2;"/>
   </g>
   <g id="line2d_17">
    <path clip-path="url(#p836b3afb54)" d="M 106.587 98.869375 
L 82.287 98.869375 
L 57.987 98.869375 
" style="fill:none;stroke:#000000;stroke-linecap:round;stroke-width:2;"/>
   </g>
   <g id="line2d_18">
    <path clip-path="url(#p836b3afb54)" d="M 57.987 98.869375 
" style="fill:none;stroke:#000000;stroke-linecap:round;stroke-width:2;"/>
   </g>
   <g id="line2d_19">
    <path clip-path="url(#p836b3afb54)" d="M 106.587 132.349375 
L 82.287 132.349375 
L 57.987 132.349375 
" style="fill:none;stroke:#000000;stroke-linecap:round;stroke-width:2;"/>
   </g>
   <g id="line2d_20">
    <path clip-path="url(#p836b3afb54)" d="M 223.227 105.565375 
L 241.278429 105.474273 
L 243.129857 105.200967 
L 244.981286 104.745457 
L 247.295571 103.919844 
L 249.609857 102.809538 
L 251.924143 101.414538 
L 254.238429 99.734844 
L 256.552714 97.770457 
L 258.867 95.521375 
L 261.181286 92.987599 
L 262.107 91.894375 
L 262.107 91.894375 
L 259.329857 88.751355 
L 257.015571 86.445334 
L 254.701286 84.424008 
L 252.387 82.687375 
L 250.072714 81.235436 
L 247.758429 80.068191 
L 245.444143 79.18564 
L 243.129857 78.587783 
L 241.278429 78.314477 
L 239.427 78.223375 
L 223.227 78.223375 
L 223.227 78.223375 
L 225.5598 80.455375 
L 227.03724 82.129375 
L 228.2814 83.803375 
L 229.29228 85.477375 
L 230.06988 87.151375 
L 230.6142 88.825375 
L 230.92524 90.499375 
L 231.003 92.173375 
L 230.84748 93.847375 
L 230.45868 95.521375 
L 229.8366 97.195375 
L 228.98124 98.869375 
L 227.8926 100.543375 
L 226.57068 102.217375 
L 225.01548 103.891375 
L 223.227 105.565375 
L 223.227 105.565375 
" style="fill:none;stroke:#000000;stroke-linecap:round;stroke-width:2;"/>
   </g>
   <g id="line2d_21">
    <path clip-path="url(#p836b3afb54)" d="M 211.887 101.101375 
L 219.70188 101.101375 
" style="fill:none;stroke:#000000;stroke-linecap:round;stroke-width:2;"/>
   </g>
   <g id="line2d_22">
    <path clip-path="url(#p836b3afb54)" d="M 211.887 91.894375 
L 231.00624 91.894375 
" style="fill:none;stroke:#000000;stroke-linecap:round;stroke-width:2;"/>
   </g>
   <g id="line2d_23">
    <path clip-path="url(#p836b3afb54)" d="M 211.887 82.687375 
L 227.47788 82.687375 
" style="fill:none;stroke:#000000;stroke-linecap:round;stroke-width:2;"/>
   </g>
   <g id="line2d_24">
    <path clip-path="url(#p836b3afb54)" d="M 211.887 91.894375 
M 262.107 91.894375 
L 273.447 91.894375 
" style="fill:none;stroke:#000000;stroke-linecap:round;stroke-width:2;"/>
   </g>
   <g id="line2d_25">
    <path clip-path="url(#p836b3afb54)" d="M 273.447 91.894375 
L 275.472 91.894375 
L 277.497 91.894375 
" style="fill:none;stroke:#000000;stroke-linecap:round;stroke-width:2;"/>
   </g>
   <g id="line2d_26">
    <path clip-path="url(#p836b3afb54)" d="M 166.527 91.894375 
L 189.828548 91.894375 
L 213.130095 91.894375 
" style="fill:none;stroke:#000000;stroke-linecap:round;stroke-width:2;"/>
   </g>
   <g id="line2d_27">
    <path clip-path="url(#p836b3afb54)" d="M 166.527 44.464375 
L 190.827 44.464375 
L 215.127 44.464375 
" style="fill:none;stroke:#000000;stroke-linecap:round;stroke-width:2;"/>
   </g>
   <g id="line2d_28">
    <path clip-path="url(#p836b3afb54)" d="M 215.127 44.464375 
L 215.127 63.575875 
L 215.127 82.687375 
" style="fill:none;stroke:#000000;stroke-linecap:round;stroke-width:2;"/>
   </g>
   <g id="line2d_29">
    <path clip-path="url(#p836b3afb54)" d="M 215.127 82.687375 
L 216.747 82.687375 
L 218.367 82.687375 
" style="fill:none;stroke:#000000;stroke-linecap:round;stroke-width:2;"/>
   </g>
   <g id="line2d_30">
    <path clip-path="url(#p836b3afb54)" d="M 166.527 132.349375 
L 190.827 132.349375 
L 215.127 132.349375 
" style="fill:none;stroke:#000000;stroke-linecap:round;stroke-width:2;"/>
   </g>
   <g id="line2d_31">
    <path clip-path="url(#p836b3afb54)" d="M 215.127 132.349375 
L 215.127 116.725375 
L 215.127 101.101375 
" style="fill:none;stroke:#000000;stroke-linecap:round;stroke-width:2;"/>
   </g>
   <g id="line2d_32">
    <path clip-path="url(#p836b3afb54)" d="M 215.127 101.101375 
L 216.747 101.101375 
L 218.367 101.101375 
" style="fill:none;stroke:#000000;stroke-linecap:round;stroke-width:2;"/>
   </g>
   <g id="text_1">
    <!-- C -->
    <defs>
     <path d="M 64.40625 67.28125 
L 64.40625 56.890625 
Q 59.421875 61.53125 53.78125 63.8125 
Q 48.140625 66.109375 41.796875 66.109375 
Q 29.296875 66.109375 22.65625 58.46875 
Q 16.015625 50.828125 16.015625 36.375 
Q 16.015625 21.96875 22.65625 14.328125 
Q 29.296875 6.6875 41.796875 6.6875 
Q 48.140625 6.6875 53.78125 8.984375 
Q 59.421875 11.28125 64.40625 15.921875 
L 64.40625 5.609375 
Q 59.234375 2.09375 53.4375 0.328125 
Q 47.65625 -1.421875 41.21875 -1.421875 
Q 24.65625 -1.421875 15.125 8.703125 
Q 5.609375 18.84375 5.609375 36.375 
Q 5.609375 53.953125 15.125 64.078125 
Q 24.65625 74.21875 41.21875 74.21875 
Q 47.75 74.21875 53.53125 72.484375 
Q 59.328125 70.75 64.40625 67.28125 
z
" id="DejaVuSans-67"/>
    </defs>
    <g transform="translate(85.499031 17.837812)scale(0.14 -0.14)">
     <use xlink:href="#DejaVuSans-67"/>
    </g>
   </g>
   <g id="text_2">
    <!-- B -->
    <defs>
     <path d="M 19.671875 34.8125 
L 19.671875 8.109375 
L 35.5 8.109375 
Q 43.453125 8.109375 47.28125 11.40625 
Q 51.125 14.703125 51.125 21.484375 
Q 51.125 28.328125 47.28125 31.5625 
Q 43.453125 34.8125 35.5 34.8125 
z
M 19.671875 64.796875 
L 19.671875 42.828125 
L 34.28125 42.828125 
Q 41.5 42.828125 45.03125 45.53125 
Q 48.578125 48.25 48.578125 53.8125 
Q 48.578125 59.328125 45.03125 62.0625 
Q 41.5 64.796875 34.28125 64.796875 
z
M 9.8125 72.90625 
L 35.015625 72.90625 
Q 46.296875 72.90625 52.390625 68.21875 
Q 58.5 63.53125 58.5 54.890625 
Q 58.5 48.1875 55.375 44.234375 
Q 52.25 40.28125 46.1875 39.3125 
Q 53.46875 37.75 57.5 32.78125 
Q 61.53125 27.828125 61.53125 20.40625 
Q 61.53125 10.640625 54.890625 5.3125 
Q 48.25 0 35.984375 0 
L 9.8125 0 
z
" id="DejaVuSans-66"/>
    </defs>
    <g transform="translate(53.184344 17.837812)scale(0.14 -0.14)">
     <use xlink:href="#DejaVuSans-66"/>
    </g>
   </g>
   <g id="text_3">
    <!-- A -->
    <defs>
     <path d="M 34.1875 63.1875 
L 20.796875 26.90625 
L 47.609375 26.90625 
z
M 28.609375 72.90625 
L 39.796875 72.90625 
L 67.578125 0 
L 57.328125 0 
L 50.6875 18.703125 
L 17.828125 18.703125 
L 11.1875 0 
L 0.78125 0 
z
" id="DejaVuSans-65"/>
    </defs>
    <g transform="translate(20.798563 17.837812)scale(0.14 -0.14)">
     <use xlink:href="#DejaVuSans-65"/>
    </g>
   </g>
   <g id="text_4">
    <!-- F -->
    <defs>
     <path d="M 9.8125 72.90625 
L 51.703125 72.90625 
L 51.703125 64.59375 
L 19.671875 64.59375 
L 19.671875 43.109375 
L 48.578125 43.109375 
L 48.578125 34.8125 
L 19.671875 34.8125 
L 19.671875 0 
L 9.8125 0 
z
" id="DejaVuSans-70"/>
    </defs>
    <g transform="translate(275.472 80.612812)scale(0.14 -0.14)">
     <use xlink:href="#DejaVuSans-70"/>
    </g>
   </g>
  </g>
 </g>
 <defs>
  <clipPath id="p836b3afb54">
   <rect height="125.271" width="286.254" x="7.2" y="15.308875"/>
  </clipPath>
 </defs>
</svg>
